M48
;Layer_Color=9474304
;FILE_FORMAT=2:4
INCH,TZ
;TYPE=PLATED
T1F00S00C0.0138
T2F00S00C0.0340
T3F00S00C0.0472
T4F00S00C0.0669
T5F00S00C0.1220
%
T01
X50346Y22063
X50394Y25197
X49972Y27898
X50504Y28555
X49512Y29857
X49370Y30061
X51539Y30476
X53073Y30807
X53150Y27559
X53986Y22629
X48323Y26594
X47045Y28901
X46850Y27559
X45909Y28224
X43033Y30490
X40551Y30709
X39945Y26972
X41293Y26413
X41339Y23622
X43854Y23366
X43909Y22079
X43898Y19776
X45091Y20878
X42685Y20972
X45276Y23622
X37610Y23965
X37572Y24618
X36285Y23484
X34559Y23196
X34579Y24406
X35756Y25453
X35811Y26693
X35417Y28238
X36287Y28161
X32760Y27441
X31472Y25453
X31496Y23531
X32878Y22453
X31684Y20996
X34043Y20756
X33287Y19146
X36834Y20984
X37472Y21083
X30882Y20756
X29311Y20319
X29528Y19685
X29315Y21772
X28543Y21654
X27677Y21331
X23756Y20752
X23622Y19685
X23394Y22331
X22528Y23520
X21661Y24728
X22579Y27902
X29181Y29909
X28787Y30937
X29567Y24683
X30434Y31626
X31150Y31751
X28694Y31822
X28803Y34567
X28449Y36366
X28811Y37224
X26575Y33465
X24862Y34602
X24336Y31835
X22528Y36937
X32480Y37402
X34449
X36417
X36996Y36866
X38386Y37402
X41047Y36993
X44693Y36421
X46260Y37402
X43465Y34504
X43307Y31496
X42520
X41732
X40945
X36980Y31520
X33283Y32067
X32480Y33465
X34449
X47622Y34677
X48441Y34842
X49213Y35433
X50575Y35272
X51181Y35433
X53150
X55118
X54741Y33725
X53406Y32161
X53150Y31496
X52492Y32669
X48902Y32110
X48929Y33742
X47244Y35433
T02
X47731Y20880
X48731
X51309Y20880
X52309
X27433Y31150
X26433Y31150
X25383Y31150
X25403Y35740
X26453
X27453
X30846Y35331
X31846
X32896
T03
X27311Y25315
T04
X25311Y23315
Y27315
X29311
Y23315
T05
X54878Y20204
X21886Y20200
X21882Y40306
X54874Y40314
M30
