G04*
G04 #@! TF.GenerationSoftware,Altium Limited,Altium Designer,20.2.7 (254)*
G04*
G04 Layer_Physical_Order=2*
G04 Layer_Color=16711680*
%FSLAX25Y25*%
%MOIN*%
G70*
G04*
G04 #@! TF.SameCoordinates,2A94134D-DB51-4003-A73D-B3C5D03A2459*
G04*
G04*
G04 #@! TF.FilePolarity,Positive*
G04*
G01*
G75*
%ADD12C,0.01000*%
%ADD53C,0.03150*%
%ADD54C,0.01575*%
%ADD79C,0.17717*%
%ADD80O,0.07500X0.09000*%
%ADD81R,0.07500X0.09000*%
%ADD82C,0.10039*%
%ADD83C,0.02756*%
%ADD84C,0.02362*%
%ADD85R,0.05512X0.07874*%
G36*
X458248Y370925D02*
X458440Y370733D01*
X458741Y370282D01*
X458949Y369780D01*
X459055Y369248D01*
Y356583D01*
X459103Y355603D01*
X459486Y353680D01*
X460236Y351869D01*
X461325Y350239D01*
X461984Y349512D01*
X463736Y347760D01*
X463453Y347336D01*
X461703Y348061D01*
X459614Y348563D01*
X457472Y348731D01*
Y348721D01*
X436962D01*
X436830Y348822D01*
X435776Y349259D01*
X434646Y349408D01*
X433515Y349259D01*
X432462Y348822D01*
X431557Y348128D01*
X430863Y347223D01*
X430426Y346170D01*
X430278Y345039D01*
X430426Y343909D01*
X430863Y342855D01*
X431557Y341951D01*
X432462Y341256D01*
X433515Y340820D01*
X434646Y340671D01*
X435776Y340820D01*
X436830Y341256D01*
X436962Y341358D01*
X457472D01*
X457524Y341365D01*
X458707Y341249D01*
X459895Y340888D01*
X460989Y340303D01*
X461908Y339549D01*
X461940Y339508D01*
X462309Y339139D01*
X462117Y338677D01*
X435227D01*
X435148Y338598D01*
Y310370D01*
X463416Y310291D01*
X463416Y337378D01*
X463878Y337570D01*
X481334Y320114D01*
X481325Y320105D01*
X482720Y318960D01*
X484311Y318109D01*
X486038Y317585D01*
X486551Y317535D01*
X486832Y317319D01*
X487885Y316883D01*
X489016Y316734D01*
X490146Y316883D01*
X491200Y317319D01*
X492104Y318014D01*
X492799Y318918D01*
X493235Y319972D01*
X493384Y321102D01*
X493235Y322233D01*
X492799Y323286D01*
X492215Y324047D01*
X492396Y324508D01*
X492432Y324547D01*
X499913D01*
X499965Y324554D01*
X500367Y324515D01*
X500591Y324291D01*
X508016Y316866D01*
X508016Y316866D01*
X508712Y316170D01*
X509807Y314532D01*
X510561Y312712D01*
X510945Y310780D01*
Y309795D01*
Y247331D01*
Y246584D01*
X497452Y233091D01*
X497444Y233099D01*
X496049Y231465D01*
X494927Y229633D01*
X494104Y227648D01*
X493603Y225559D01*
X493434Y223417D01*
X493445D01*
Y205093D01*
X493451Y205047D01*
X493335Y204164D01*
X492976Y203298D01*
X492720Y202964D01*
X492210Y202993D01*
X492062Y203303D01*
Y204488D01*
X486206D01*
X485998Y204530D01*
X485802Y204611D01*
X485626Y204728D01*
X485551Y204803D01*
X485188Y205167D01*
Y205167D01*
X484844Y205511D01*
X484303Y206320D01*
X483930Y207220D01*
X483740Y208175D01*
Y208661D01*
Y214303D01*
X482562D01*
X482148Y214510D01*
X481164Y215318D01*
X479965Y215959D01*
X478665Y216353D01*
X477312Y216486D01*
X475960Y216353D01*
X474659Y215959D01*
X473460Y215318D01*
X472410Y214456D01*
X471548Y213405D01*
X470907Y212207D01*
X470512Y210906D01*
X470379Y209553D01*
Y208053D01*
X470512Y206701D01*
X470616Y206360D01*
X470174Y206095D01*
X466760Y209509D01*
X466496Y210834D01*
Y211819D01*
Y279952D01*
X466448Y280932D01*
X466066Y282855D01*
X465315Y284666D01*
X464226Y286296D01*
X463567Y287023D01*
X462240Y288351D01*
X461458Y289626D01*
X460203Y291096D01*
X460179Y291127D01*
X453385Y297921D01*
X453388Y297924D01*
X451626Y299429D01*
X449650Y300640D01*
X447509Y301527D01*
X445255Y302068D01*
X442944Y302250D01*
Y302245D01*
X430736D01*
Y302245D01*
X430736Y302245D01*
X429915D01*
D01*
D01*
X390363D01*
X390226Y302228D01*
X388999Y302389D01*
X387727Y302916D01*
X387121Y303381D01*
X386738Y303954D01*
X386161Y305348D01*
X385866Y306828D01*
Y307583D01*
Y333167D01*
Y333696D01*
X386073Y334735D01*
X386478Y335713D01*
X387067Y336594D01*
X387441Y336968D01*
X393641Y343168D01*
X393929Y343486D01*
X393962Y343535D01*
X394405Y344199D01*
X394733Y344991D01*
X394900Y345831D01*
X394921Y346260D01*
Y364991D01*
Y365574D01*
X395148Y366716D01*
X395594Y367793D01*
X396242Y368761D01*
X397662Y370181D01*
X397662Y370181D01*
Y370181D01*
X398358Y370878D01*
X399666Y371752D01*
X408463D01*
D01*
D01*
X412482D01*
D01*
D01*
X457421D01*
X458248Y370925D01*
D02*
G37*
G36*
X556602Y340797D02*
X556102Y340777D01*
X556101Y340783D01*
X555674Y342562D01*
X554974Y344251D01*
X554019Y345811D01*
X552857Y347171D01*
X552834Y347204D01*
X552795Y347231D01*
X551474Y348359D01*
X549952Y349292D01*
X548303Y349975D01*
X546568Y350391D01*
X544836Y350528D01*
X544789Y350537D01*
X507312D01*
X507160Y351037D01*
X507320Y351144D01*
X507803Y351866D01*
X507872Y352217D01*
X503624D01*
X503693Y351866D01*
X504176Y351144D01*
X504336Y351037D01*
X504184Y350537D01*
X486183D01*
X485803Y350829D01*
X485133Y351107D01*
X484413Y351201D01*
X483694Y351107D01*
X483023Y350829D01*
X482447Y350387D01*
X482006Y349811D01*
X481728Y349141D01*
X481651Y348556D01*
X480949Y347734D01*
X479956Y346113D01*
X479229Y344357D01*
X478785Y342509D01*
X478638Y340642D01*
X478633Y340614D01*
Y339418D01*
X478638Y339390D01*
X478785Y337523D01*
X479229Y335675D01*
X479956Y333919D01*
X480949Y332298D01*
X482165Y330874D01*
X482181Y330851D01*
X483370Y329661D01*
X483394Y329646D01*
X484818Y328429D01*
X486439Y327436D01*
X488195Y326709D01*
X490043Y326265D01*
X491140Y326179D01*
X491297Y325683D01*
X491278Y325654D01*
X491251Y325634D01*
X491214Y325595D01*
X491061Y325343D01*
X490902Y325095D01*
X490721Y324635D01*
X490686Y324442D01*
X490623Y324257D01*
X490631Y324137D01*
X490609Y324018D01*
X490626Y323943D01*
X490419Y323723D01*
X490164Y323610D01*
X489735Y323787D01*
X489016Y323882D01*
X488296Y323787D01*
X487626Y323510D01*
X487310Y323267D01*
X486950Y323314D01*
X486126Y323656D01*
X485467Y324161D01*
X485433Y324212D01*
X466039Y343606D01*
X466016Y343622D01*
X464591Y344838D01*
X463846Y345295D01*
X463842Y345322D01*
X463906Y345777D01*
X463935Y345827D01*
X464067Y345853D01*
X464198Y345941D01*
X464345Y346001D01*
X464456Y346113D01*
X464588Y346201D01*
X464676Y346333D01*
X464788Y346444D01*
X465071Y346868D01*
X465131Y347014D01*
X465219Y347146D01*
X465250Y347301D01*
X465311Y347447D01*
Y347605D01*
X465341Y347760D01*
X465311Y347915D01*
Y348074D01*
X465250Y348220D01*
X465219Y348375D01*
X465131Y348506D01*
X465071Y348652D01*
X464959Y348764D01*
X464871Y348896D01*
X463147Y350620D01*
X462594Y351230D01*
X461659Y352630D01*
X461030Y354149D01*
X460701Y355800D01*
X460661Y356623D01*
Y369248D01*
X460630Y369403D01*
Y369561D01*
X460524Y370094D01*
X460463Y370240D01*
X460433Y370395D01*
X460225Y370897D01*
X460137Y371028D01*
X460077Y371174D01*
X459775Y371625D01*
X459663Y371737D01*
X459575Y371869D01*
X459383Y372061D01*
X459383Y372061D01*
X458557Y372887D01*
X458557Y372887D01*
X458036Y373235D01*
X457421Y373358D01*
X457421Y373358D01*
X412482D01*
X412482Y373358D01*
X412482Y373358D01*
X399666D01*
X399511Y373327D01*
X399353D01*
X399207Y373266D01*
X399052Y373235D01*
X398920Y373148D01*
X398774Y373087D01*
X397466Y372213D01*
X397354Y372101D01*
X397223Y372013D01*
X395106Y369897D01*
X395018Y369765D01*
X394907Y369653D01*
X394259Y368685D01*
X394199Y368539D01*
X394111Y368407D01*
X393665Y367331D01*
X393634Y367176D01*
X393574Y367030D01*
X393347Y365887D01*
Y365729D01*
X393316Y365574D01*
Y364991D01*
Y346299D01*
X393302Y346028D01*
X393189Y345459D01*
X392982Y344959D01*
X392659Y344477D01*
X392477Y344276D01*
X386306Y338104D01*
X385931Y337729D01*
X385843Y337598D01*
X385731Y337486D01*
X385143Y336606D01*
X385083Y336459D01*
X384995Y336328D01*
X384589Y335349D01*
X384559Y335194D01*
X384498Y335048D01*
X384291Y334009D01*
Y333851D01*
X384261Y333696D01*
Y333167D01*
Y307583D01*
Y306828D01*
X384291Y306673D01*
Y306515D01*
X384586Y305035D01*
X384646Y304889D01*
X384677Y304734D01*
X385255Y303339D01*
X385343Y303208D01*
X385403Y303062D01*
X385786Y302489D01*
X385971Y302304D01*
X386143Y302107D01*
X386750Y301642D01*
X386938Y301549D01*
X387113Y301432D01*
X388384Y300906D01*
X388590Y300865D01*
X388789Y300797D01*
X390017Y300636D01*
X390226Y300649D01*
X390358Y300641D01*
X390363Y300640D01*
X390372D01*
X390436Y300636D01*
X390468Y300640D01*
X442942D01*
X445003Y300478D01*
X447011Y299996D01*
X448919Y299205D01*
X450679Y298127D01*
X452252Y296784D01*
X458982Y290054D01*
X458982Y290053D01*
X460155Y288679D01*
X460871Y287512D01*
X460999Y287373D01*
X461104Y287216D01*
X462404Y285916D01*
X462957Y285306D01*
X463892Y283906D01*
X464522Y282387D01*
X464850Y280735D01*
X464890Y279913D01*
Y211819D01*
Y210834D01*
X464921Y210679D01*
Y210521D01*
X465090Y209671D01*
X464629Y209425D01*
X460055Y214000D01*
X460031Y214016D01*
X458607Y215232D01*
X456987Y216225D01*
X455231Y216952D01*
X453382Y217396D01*
X451515Y217543D01*
X451488Y217548D01*
X429733D01*
X429705Y217543D01*
X427838Y217396D01*
X425990Y216952D01*
X424234Y216225D01*
X422613Y215232D01*
X421189Y214016D01*
X421166Y214000D01*
X416433Y209267D01*
X416378Y209185D01*
X415254Y208263D01*
X413886Y207532D01*
X412402Y207081D01*
X410955Y206939D01*
X410858Y206958D01*
X377478D01*
X377381Y206939D01*
X375934Y207081D01*
X374795Y207427D01*
X374714Y207566D01*
X374714Y207580D01*
X374991Y208082D01*
X375444Y208142D01*
X376114Y208419D01*
X376690Y208861D01*
X377132Y209437D01*
X377409Y210107D01*
X377504Y210827D01*
X377409Y211546D01*
X377132Y212217D01*
X376690Y212792D01*
X376114Y213234D01*
X375444Y213512D01*
X375251Y213537D01*
X374863Y214264D01*
X375149Y214764D01*
X376453D01*
Y224954D01*
X406378D01*
X407300Y225137D01*
X408081Y225659D01*
X409813Y227391D01*
X410335Y228173D01*
X410519Y229095D01*
Y253930D01*
X441063D01*
X441985Y254113D01*
X442766Y254636D01*
X445089Y256958D01*
X445611Y257740D01*
X445794Y258661D01*
Y276024D01*
X445716Y276419D01*
Y290118D01*
X445532Y291040D01*
X445010Y291821D01*
X443238Y293593D01*
X442457Y294115D01*
X441535Y294298D01*
X378632D01*
X377710Y294115D01*
X377490Y294201D01*
X377235Y295263D01*
X376507Y297019D01*
X375514Y298640D01*
X374298Y300064D01*
X374282Y300087D01*
X366433Y307937D01*
X366409Y307953D01*
X364985Y309169D01*
X363365Y310162D01*
X361609Y310889D01*
X359760Y311333D01*
X357893Y311480D01*
X357866Y311486D01*
X289644D01*
X289264Y311777D01*
X288593Y312055D01*
X287874Y312150D01*
X287155Y312055D01*
X286484Y311777D01*
X285909Y311336D01*
X285467Y310760D01*
X285189Y310089D01*
X285094Y309370D01*
X285189Y308651D01*
X285467Y307980D01*
X285909Y307405D01*
X286484Y306963D01*
X287155Y306685D01*
X287874Y306590D01*
X288593Y306685D01*
X289264Y306963D01*
X289644Y307255D01*
X357866D01*
X357962Y307274D01*
X359409Y307131D01*
X360894Y306681D01*
X362262Y305950D01*
X363386Y305027D01*
X363441Y304945D01*
X371291Y297096D01*
X371373Y297041D01*
X372295Y295917D01*
X372941Y294709D01*
X372655Y294256D01*
X372441Y294298D01*
X243543D01*
X242622Y294115D01*
X241840Y293593D01*
X240541Y292294D01*
X240019Y291512D01*
X239836Y290591D01*
Y222165D01*
X240019Y221244D01*
X240541Y220462D01*
X242234Y218769D01*
X243015Y218247D01*
X243937Y218064D01*
X288819D01*
X289741Y218247D01*
X289954Y218390D01*
X290420Y218100D01*
X290370Y217717D01*
X290465Y216997D01*
X290742Y216327D01*
X291184Y215751D01*
X291760Y215309D01*
X292430Y215032D01*
X293150Y214937D01*
X293869Y215032D01*
X294539Y215309D01*
X295115Y215751D01*
X295557Y216327D01*
X295835Y216997D01*
X295912Y217587D01*
X295966Y217745D01*
X296388Y218064D01*
X301102D01*
X302024Y218247D01*
X302805Y218769D01*
X309068Y225032D01*
X323425D01*
X324347Y225216D01*
X325128Y225738D01*
X333320Y233930D01*
X343772D01*
X343942Y233430D01*
X343531Y232814D01*
X343461Y232463D01*
X345585D01*
Y231963D01*
X346085D01*
Y229839D01*
X346436Y229908D01*
X347158Y230391D01*
X347517Y230929D01*
X348099Y231054D01*
X353494Y225659D01*
X354275Y225137D01*
X355197Y224954D01*
X367792D01*
Y214764D01*
X370299D01*
X370552Y213711D01*
X371212Y212118D01*
X371955Y210905D01*
X371945Y210827D01*
X372039Y210107D01*
X372230Y209647D01*
X371806Y209364D01*
X371083Y210087D01*
X371021Y210562D01*
X370743Y211232D01*
X370301Y211808D01*
X369726Y212250D01*
X369055Y212527D01*
X368336Y212622D01*
X367616Y212527D01*
X366946Y212250D01*
X366370Y211808D01*
X365929Y211232D01*
X365651Y210562D01*
X365556Y209842D01*
X365651Y209123D01*
X365929Y208453D01*
X366370Y207877D01*
X366946Y207435D01*
X367616Y207158D01*
X368092Y207095D01*
X368911Y206276D01*
X368934Y206260D01*
X370358Y205044D01*
X370918Y204701D01*
X370782Y204220D01*
X363749D01*
X363637Y204197D01*
X362261Y204333D01*
X360831Y204767D01*
X359512Y205471D01*
X358443Y206349D01*
X358380Y206443D01*
X350183Y214640D01*
X350126Y214678D01*
X348698Y215898D01*
X347039Y216915D01*
X345241Y217660D01*
X343349Y218114D01*
X341476Y218261D01*
X341409Y218275D01*
X330599D01*
X330532Y218261D01*
X328659Y218114D01*
X326767Y217660D01*
X324969Y216915D01*
X323310Y215898D01*
X321882Y214678D01*
X321825Y214640D01*
X320226Y213042D01*
X320167Y212954D01*
X319497Y212506D01*
X318706Y212349D01*
X318602Y212369D01*
X318230D01*
X317563Y212646D01*
X316843Y212740D01*
X316124Y212646D01*
X315453Y212368D01*
X314878Y211926D01*
X314436Y211350D01*
X314158Y210680D01*
X314064Y209961D01*
X314158Y209241D01*
X314436Y208571D01*
X314878Y207995D01*
X315453Y207553D01*
X316124Y207276D01*
X316843Y207181D01*
X317563Y207276D01*
X318230Y207552D01*
X318602D01*
X318723Y207576D01*
X319737Y207676D01*
X319937Y207193D01*
X319524Y206854D01*
X319524Y206854D01*
X319159Y206527D01*
X318535Y206047D01*
X317351Y205557D01*
X316180Y205403D01*
X316081Y205422D01*
X311650D01*
X311429Y205871D01*
X311475Y205931D01*
X311792Y206698D01*
X311901Y207520D01*
X311792Y208342D01*
X311475Y209108D01*
X310970Y209766D01*
X310312Y210271D01*
X309546Y210588D01*
X308724Y210697D01*
X279299D01*
X279117Y211196D01*
X279523Y211725D01*
X279840Y212492D01*
X279948Y213314D01*
X279840Y214136D01*
X279523Y214902D01*
X279018Y215560D01*
X278360Y216065D01*
X277594Y216382D01*
X276772Y216491D01*
X239450D01*
X239406Y216485D01*
X238117Y216612D01*
X236835Y217001D01*
X235654Y217632D01*
X234652Y218454D01*
X234626Y218489D01*
X233421Y219694D01*
X233654Y220167D01*
X233937Y220130D01*
X234759Y220239D01*
X235525Y220556D01*
X236183Y221061D01*
X236688Y221719D01*
X237005Y222485D01*
X237114Y223307D01*
Y287393D01*
X237108Y287437D01*
X237235Y288726D01*
X237624Y290008D01*
X238255Y291190D01*
X239077Y292191D01*
X239112Y292218D01*
X240813Y293919D01*
X240840Y293954D01*
X241842Y294776D01*
X243023Y295408D01*
X244305Y295796D01*
X245594Y295923D01*
X245638Y295918D01*
X269032D01*
Y295911D01*
X270387Y296045D01*
X271690Y296440D01*
X272891Y297082D01*
X273944Y297946D01*
X273947Y297943D01*
X275188Y299396D01*
X276186Y301026D01*
X276918Y302792D01*
X277364Y304650D01*
X277508Y306475D01*
X278124Y306948D01*
X278978Y308061D01*
X279515Y309356D01*
X279697Y310746D01*
Y312246D01*
X279515Y313636D01*
X278978Y314931D01*
X278364Y315731D01*
X278611Y316231D01*
X285002D01*
X285549Y315811D01*
X286220Y315534D01*
X286939Y315439D01*
X287658Y315534D01*
X288329Y315811D01*
X288905Y316253D01*
X289346Y316829D01*
X289624Y317499D01*
X289719Y318218D01*
X289624Y318938D01*
X289346Y319608D01*
X288905Y320184D01*
X288329Y320626D01*
X287658Y320903D01*
X286939Y320998D01*
X286220Y320903D01*
X285549Y320626D01*
X285336Y320462D01*
X245128D01*
X244748Y320754D01*
X244078Y321031D01*
X243358Y321126D01*
X242639Y321031D01*
X241968Y320754D01*
X241393Y320312D01*
X240951Y319736D01*
X240673Y319066D01*
X240579Y318347D01*
X240673Y317627D01*
X240951Y316957D01*
X241393Y316381D01*
X241968Y315939D01*
X242639Y315662D01*
X243358Y315567D01*
X244078Y315662D01*
X244748Y315939D01*
X245128Y316231D01*
X248502D01*
Y305421D01*
X259152D01*
Y309834D01*
X259652Y309866D01*
X259699Y309506D01*
X260178Y308351D01*
X260939Y307358D01*
X261931Y306597D01*
X263087Y306118D01*
X263827Y306021D01*
Y311496D01*
X264827D01*
Y306021D01*
X265567Y306118D01*
X266722Y306597D01*
X267715Y307358D01*
X268476Y308351D01*
X268745Y309000D01*
X269286D01*
X269676Y308061D01*
X270529Y306948D01*
X271162Y306463D01*
X271164Y306452D01*
X270978Y305043D01*
X270394Y303634D01*
X269529Y302506D01*
X269447Y302443D01*
X269420Y302409D01*
X269075Y302266D01*
X269032Y302271D01*
X245638D01*
Y302285D01*
X243575Y302122D01*
X241562Y301639D01*
X239650Y300847D01*
X237885Y299766D01*
X236311Y298421D01*
X236321Y298412D01*
X234620Y296711D01*
X234610Y296720D01*
X233266Y295146D01*
X232184Y293382D01*
X231392Y291469D01*
X230909Y289457D01*
X230747Y287393D01*
X230760D01*
Y223307D01*
X230798Y223020D01*
X230783Y223005D01*
X230322Y222805D01*
X229594Y223692D01*
X228962Y224874D01*
X228574Y226155D01*
X228447Y227445D01*
X228452Y227489D01*
Y235197D01*
Y250897D01*
X228466D01*
X228304Y252961D01*
X227820Y254973D01*
X227028Y256886D01*
X225947Y258650D01*
X224603Y260224D01*
X224593Y260215D01*
X222065Y262743D01*
X222030Y262770D01*
X221208Y263771D01*
X220577Y264952D01*
X220188Y266234D01*
X220061Y267524D01*
X220066Y267567D01*
Y356842D01*
X220061Y356886D01*
X220188Y358175D01*
X220577Y359457D01*
X221208Y360638D01*
X222030Y361640D01*
X222065Y361667D01*
X224796Y364398D01*
X225191Y364086D01*
X224995Y363767D01*
X224268Y362011D01*
X223824Y360162D01*
X223677Y358295D01*
X223672Y358268D01*
Y280786D01*
X223380Y280406D01*
X223102Y279735D01*
X223008Y279016D01*
X223102Y278296D01*
X223380Y277626D01*
X223822Y277050D01*
X224398Y276608D01*
X225068Y276331D01*
X225787Y276236D01*
X226507Y276331D01*
X227177Y276608D01*
X227753Y277050D01*
X228195Y277626D01*
X228472Y278296D01*
X228567Y279016D01*
X228472Y279735D01*
X228195Y280406D01*
X227903Y280786D01*
Y358268D01*
X227884Y358364D01*
X228026Y359811D01*
X228477Y361296D01*
X229208Y362664D01*
X230192Y363863D01*
X231391Y364847D01*
X232759Y365579D01*
X234244Y366029D01*
X235691Y366172D01*
X235787Y366152D01*
X282386D01*
X282556Y365652D01*
X282523Y365627D01*
X282081Y365051D01*
X281803Y364381D01*
X281709Y363661D01*
X281803Y362942D01*
X282081Y362272D01*
X282373Y361891D01*
Y353355D01*
X282378Y353327D01*
X282525Y351460D01*
X282969Y349612D01*
X283696Y347856D01*
X284689Y346235D01*
X285266Y345560D01*
X285347Y344950D01*
X285624Y344279D01*
X286066Y343704D01*
X286642Y343262D01*
X287312Y342984D01*
X288032Y342890D01*
X288751Y342984D01*
X289421Y343262D01*
X289997Y343704D01*
X290439Y344279D01*
X290717Y344950D01*
X290811Y345669D01*
X290717Y346389D01*
X290439Y347059D01*
X289997Y347635D01*
X289421Y348077D01*
X288751Y348354D01*
X288362Y348405D01*
X287909Y348958D01*
X287177Y350326D01*
X286727Y351811D01*
X286584Y353258D01*
X286604Y353355D01*
Y361891D01*
X286895Y362272D01*
X287173Y362942D01*
X287268Y363661D01*
X287173Y364381D01*
X286895Y365051D01*
X286454Y365627D01*
X286421Y365652D01*
X286591Y366152D01*
X308465D01*
X308561Y366172D01*
X310008Y366029D01*
X311493Y365579D01*
X312861Y364847D01*
X314060Y363863D01*
X315044Y362664D01*
X315775Y361296D01*
X316226Y359811D01*
X316313Y358929D01*
X315779Y358708D01*
X314667Y357855D01*
X313813Y356743D01*
X313715Y356504D01*
X313215D01*
X313116Y356743D01*
X312262Y357855D01*
X311150Y358708D01*
X309855Y359245D01*
X308465Y359428D01*
X307074Y359245D01*
X305779Y358708D01*
X304667Y357855D01*
X303813Y356743D01*
X303277Y355447D01*
X303094Y354057D01*
Y352557D01*
X303277Y351167D01*
X303813Y349872D01*
X304667Y348759D01*
X305779Y347906D01*
X307074Y347369D01*
X308465Y347186D01*
X309855Y347369D01*
X311150Y347906D01*
X312262Y348759D01*
X313116Y349872D01*
X313215Y350110D01*
X313715D01*
X313813Y349872D01*
X314667Y348759D01*
X315779Y347906D01*
X317074Y347369D01*
X318465Y347186D01*
X319855Y347369D01*
X321150Y347906D01*
X322262Y348759D01*
X323116Y349872D01*
X323652Y351167D01*
X323715Y351640D01*
X324215Y351607D01*
Y347807D01*
X328465D01*
Y353307D01*
Y358807D01*
X324215D01*
Y355007D01*
X323715Y354974D01*
X323652Y355447D01*
X323116Y356743D01*
X322262Y357855D01*
X321150Y358708D01*
X320522Y358969D01*
X320428Y360162D01*
X319984Y362011D01*
X319257Y363767D01*
X318264Y365387D01*
X317029Y366832D01*
X315584Y368067D01*
X313998Y369038D01*
X313963Y369060D01*
X313874Y369097D01*
X313844Y369117D01*
X313808Y369124D01*
X312207Y369787D01*
X310359Y370231D01*
X308492Y370378D01*
X308465Y370383D01*
X290721D01*
X290500Y370832D01*
X290517Y370854D01*
X290795Y371525D01*
X290890Y372244D01*
X290795Y372964D01*
X290517Y373634D01*
X290076Y374210D01*
X289500Y374651D01*
X288830Y374929D01*
X288110Y375024D01*
X287391Y374929D01*
X286720Y374651D01*
X286340Y374359D01*
X232214D01*
X232182Y374353D01*
X230349Y374209D01*
X228529Y373772D01*
X226801Y373056D01*
X225847Y372472D01*
X225276Y372547D01*
X224453Y372439D01*
X223687Y372121D01*
X223029Y371616D01*
X217572Y366160D01*
X217563Y366169D01*
X216219Y364595D01*
X215137Y362830D01*
X214345Y360918D01*
X213862Y358906D01*
X213700Y356842D01*
X213713D01*
Y267567D01*
X213700D01*
X213862Y265504D01*
X214345Y263491D01*
X215137Y261579D01*
X216219Y259814D01*
X217563Y258240D01*
X217572Y258250D01*
X220100Y255722D01*
X220135Y255695D01*
X220957Y254694D01*
X221589Y253512D01*
X221978Y252230D01*
X222105Y250941D01*
X222099Y250897D01*
Y235197D01*
Y227489D01*
X222085D01*
X222248Y225425D01*
X222731Y223413D01*
X223523Y221500D01*
X224604Y219736D01*
X225949Y218162D01*
X225958Y218171D01*
X230133Y213997D01*
X230123Y213987D01*
X231697Y212643D01*
X233462Y211561D01*
X235374Y210769D01*
X235728Y210684D01*
X235813Y210150D01*
X235313Y209766D01*
X234808Y209108D01*
X234490Y208342D01*
X234382Y207520D01*
X234490Y206698D01*
X234808Y205931D01*
X235313Y205273D01*
X235971Y204768D01*
X236737Y204451D01*
X237559Y204343D01*
X290155D01*
X290354Y204045D01*
X290417Y203843D01*
X290331Y203189D01*
X290425Y202470D01*
X290703Y201799D01*
X291145Y201223D01*
X291720Y200782D01*
X292391Y200504D01*
X293110Y200409D01*
X293830Y200504D01*
X294500Y200782D01*
X295034Y201192D01*
X316081D01*
Y201188D01*
X317858Y201363D01*
X319567Y201882D01*
X321142Y202724D01*
X322522Y203856D01*
X322522Y203856D01*
X322885Y204186D01*
X323622Y204751D01*
X324936Y205295D01*
X326234Y205466D01*
X326346Y205444D01*
X338663D01*
X339043Y205152D01*
X339714Y204874D01*
X340433Y204779D01*
X341153Y204874D01*
X341823Y205152D01*
X342399Y205593D01*
X342840Y206169D01*
X343118Y206840D01*
X343213Y207559D01*
X343118Y208278D01*
X342840Y208949D01*
X342399Y209525D01*
X341823Y209966D01*
X341153Y210244D01*
X340433Y210339D01*
X339714Y210244D01*
X339043Y209966D01*
X338663Y209675D01*
X326346D01*
Y209680D01*
X324464Y209495D01*
X324083Y209379D01*
X323818Y209822D01*
X325231Y211234D01*
X325294Y211328D01*
X326363Y212206D01*
X327681Y212910D01*
X329111Y213344D01*
X330488Y213480D01*
X330599Y213458D01*
X341409D01*
X341520Y213480D01*
X342897Y213344D01*
X344327Y212910D01*
X345645Y212206D01*
X346714Y211328D01*
X346777Y211234D01*
X354974Y203037D01*
X355031Y202999D01*
X356460Y201779D01*
X358119Y200762D01*
X359916Y200017D01*
X361809Y199563D01*
X363682Y199416D01*
X363749Y199402D01*
X368367D01*
Y195579D01*
X372123D01*
X375879D01*
Y199402D01*
X423929D01*
X423996Y199416D01*
X425869Y199563D01*
X427761Y200017D01*
X429558Y200762D01*
X431217Y201779D01*
X432646Y202999D01*
X432703Y203037D01*
X433813Y204148D01*
X433876Y204242D01*
X434946Y205119D01*
X436264Y205824D01*
X437694Y206258D01*
X439071Y206393D01*
X439182Y206371D01*
X448790D01*
Y204418D01*
X448796Y204390D01*
X448943Y202523D01*
X449386Y200675D01*
X450113Y198919D01*
X451107Y197298D01*
X452323Y195874D01*
X452339Y195851D01*
X452701Y195488D01*
X452725Y195473D01*
X454149Y194256D01*
X455769Y193263D01*
X457525Y192536D01*
X459373Y192092D01*
X461241Y191945D01*
X461268Y191940D01*
X521744D01*
X521785Y191948D01*
X523557Y192087D01*
X525325Y192512D01*
X527004Y193208D01*
X528555Y194158D01*
X529906Y195312D01*
X529941Y195335D01*
X529964Y195370D01*
X531118Y196721D01*
X532068Y198271D01*
X532764Y199951D01*
X533188Y201719D01*
X533328Y203491D01*
X533336Y203532D01*
Y213509D01*
X533317Y213606D01*
X533459Y215053D01*
X533910Y216538D01*
X534641Y217906D01*
X535563Y219030D01*
X535645Y219085D01*
X540099Y223539D01*
X540575Y223601D01*
X541245Y223879D01*
X541821Y224321D01*
X542262Y224897D01*
X542540Y225567D01*
X542603Y226042D01*
X552701Y236140D01*
X552716Y236164D01*
X553933Y237588D01*
X554926Y239208D01*
X555653Y240964D01*
X556097Y242812D01*
X556244Y244680D01*
X556249Y244707D01*
Y256697D01*
X556749Y256833D01*
X562795Y250748D01*
X562756Y199252D01*
X551535Y188307D01*
X216063Y188347D01*
X205079Y199134D01*
Y384095D01*
X556575D01*
X556602Y340797D01*
D02*
G37*
G36*
X443307Y290118D02*
Y258740D01*
X443386Y258661D01*
X441063Y256339D01*
X409033D01*
X408110Y255416D01*
Y229095D01*
X406378Y227362D01*
X355197D01*
X346220Y236339D01*
X332323D01*
X323425Y227441D01*
X308071D01*
X301102Y220472D01*
X295265D01*
Y226912D01*
X295646Y227028D01*
X296792Y227640D01*
X297796Y228464D01*
X298620Y229468D01*
X299232Y230614D01*
X299609Y231857D01*
X299737Y233150D01*
X299609Y234442D01*
X299232Y235685D01*
X298620Y236831D01*
X297796Y237835D01*
X296792Y238659D01*
X295646Y239272D01*
X294403Y239649D01*
X293110Y239776D01*
X291817Y239649D01*
X290574Y239272D01*
X289429Y238659D01*
X288425Y237835D01*
X287601Y236831D01*
X287331Y236326D01*
X258890D01*
X258620Y236831D01*
X257796Y237835D01*
X256792Y238659D01*
X256287Y238929D01*
Y267370D01*
X256792Y267640D01*
X257796Y268464D01*
X258620Y269468D01*
X258890Y269973D01*
X287331D01*
X287601Y269468D01*
X288425Y268464D01*
X289429Y267640D01*
X290574Y267028D01*
X291817Y266651D01*
X293110Y266523D01*
X294403Y266651D01*
X295646Y267028D01*
X296792Y267640D01*
X297796Y268464D01*
X298620Y269468D01*
X299232Y270614D01*
X299609Y271857D01*
X299737Y273150D01*
X299609Y274442D01*
X299232Y275685D01*
X298620Y276831D01*
X297796Y277835D01*
X296792Y278659D01*
X295646Y279272D01*
X294403Y279649D01*
X293110Y279776D01*
X291817Y279649D01*
X290574Y279272D01*
X289429Y278659D01*
X288425Y277835D01*
X287601Y276831D01*
X287331Y276326D01*
X258890D01*
X258620Y276831D01*
X257796Y277835D01*
X256792Y278659D01*
X255646Y279272D01*
X254403Y279649D01*
X253110Y279776D01*
X251817Y279649D01*
X250574Y279272D01*
X249429Y278659D01*
X248425Y277835D01*
X247601Y276831D01*
X246988Y275685D01*
X246611Y274442D01*
X246484Y273150D01*
X246611Y271857D01*
X246988Y270614D01*
X247601Y269468D01*
X248425Y268464D01*
X249429Y267640D01*
X249933Y267370D01*
Y238929D01*
X249429Y238659D01*
X248425Y237835D01*
X247601Y236831D01*
X246988Y235685D01*
X246611Y234442D01*
X246484Y233150D01*
X246611Y231857D01*
X246988Y230614D01*
X247601Y229468D01*
X248425Y228464D01*
X249429Y227640D01*
X250574Y227028D01*
X251817Y226651D01*
X253110Y226523D01*
X254403Y226651D01*
X255646Y227028D01*
X256792Y227640D01*
X257796Y228464D01*
X258620Y229468D01*
X258890Y229973D01*
X287331D01*
X287601Y229468D01*
X288425Y228464D01*
X289429Y227640D01*
X290574Y227028D01*
X291034Y226888D01*
Y220472D01*
X243937D01*
X242244Y222165D01*
Y290591D01*
X243543Y291890D01*
X373246D01*
X373600Y291520D01*
Y247951D01*
X373308Y247571D01*
X373030Y246901D01*
X372936Y246181D01*
X373030Y245462D01*
X373308Y244791D01*
X373750Y244216D01*
X374326Y243774D01*
X374996Y243496D01*
X375715Y243401D01*
X376435Y243496D01*
X377105Y243774D01*
X377681Y244216D01*
X378123Y244791D01*
X378400Y245462D01*
X378495Y246181D01*
X378400Y246901D01*
X378123Y247571D01*
X377831Y247951D01*
Y291520D01*
X378153Y291890D01*
X441535D01*
X443307Y290118D01*
D02*
G37*
G36*
X545294Y268109D02*
Y245882D01*
X545313Y245786D01*
X545171Y244338D01*
X544720Y242854D01*
X543989Y241486D01*
X543067Y240362D01*
X542985Y240307D01*
X541787Y239110D01*
X541733Y239028D01*
X540609Y238105D01*
X539241Y237374D01*
X537756Y236924D01*
X536309Y236781D01*
X536212Y236801D01*
X521662D01*
X521634Y236795D01*
X519767Y236648D01*
X517919Y236204D01*
X516163Y235477D01*
X514542Y234484D01*
X513118Y233267D01*
X513095Y233252D01*
X503220Y223377D01*
X502745Y223315D01*
X502366Y223699D01*
X502650Y224634D01*
X503381Y226002D01*
X504304Y227126D01*
X504385Y227181D01*
X542858Y265654D01*
X542874Y265677D01*
X544090Y267102D01*
X544794Y268250D01*
X545294Y268109D01*
D02*
G37*
G36*
X546188Y346194D02*
X547534Y345785D01*
X548774Y345123D01*
X549795Y344285D01*
X549843Y344213D01*
X549918Y344162D01*
X550789Y343102D01*
X551477Y341813D01*
X551902Y340415D01*
X552036Y339050D01*
X552018Y338960D01*
Y244707D01*
X552038Y244611D01*
X551895Y243163D01*
X551445Y241679D01*
X550713Y240311D01*
X549791Y239187D01*
X549709Y239132D01*
X539611Y229034D01*
X539136Y228971D01*
X538465Y228694D01*
X537890Y228252D01*
X537448Y227676D01*
X537170Y227006D01*
X537108Y226531D01*
X532654Y222076D01*
X532638Y222053D01*
X531422Y220629D01*
X530429Y219008D01*
X529701Y217252D01*
X529257Y215404D01*
X529110Y213537D01*
X529105Y213509D01*
Y203532D01*
X529123Y203443D01*
X528989Y202090D01*
X528569Y200705D01*
X527886Y199427D01*
X527024Y198377D01*
X526949Y198327D01*
X526899Y198252D01*
X525848Y197389D01*
X524571Y196707D01*
X523185Y196286D01*
X521832Y196153D01*
X521744Y196171D01*
X498840D01*
X498672Y196641D01*
X499373Y197217D01*
X500523Y198617D01*
X501376Y200215D01*
X501902Y201949D01*
X502080Y203751D01*
X502076D01*
Y217772D01*
X502492Y218050D01*
X502745Y217945D01*
X503465Y217850D01*
X504184Y217945D01*
X504854Y218223D01*
X505430Y218664D01*
X505872Y219240D01*
X506149Y219911D01*
X506212Y220386D01*
X516087Y230260D01*
X516141Y230342D01*
X517265Y231265D01*
X518634Y231996D01*
X520118Y232446D01*
X521565Y232589D01*
X521662Y232570D01*
X536212D01*
X536240Y232575D01*
X538107Y232722D01*
X539955Y233166D01*
X541711Y233893D01*
X543331Y234886D01*
X544756Y236103D01*
X544779Y236118D01*
X545976Y237315D01*
X545992Y237339D01*
X547208Y238763D01*
X548201Y240384D01*
X548929Y242139D01*
X549372Y243987D01*
X549519Y245855D01*
X549525Y245882D01*
Y335482D01*
X549817Y335862D01*
X550094Y336532D01*
X550189Y337252D01*
X550094Y337971D01*
X549817Y338642D01*
X549375Y339217D01*
X548799Y339659D01*
X548129Y339937D01*
X547409Y340032D01*
X546690Y339937D01*
X546020Y339659D01*
X545444Y339217D01*
X545002Y338642D01*
X544725Y337971D01*
X544630Y337252D01*
X544725Y336532D01*
X545002Y335862D01*
X545294Y335482D01*
Y331419D01*
X544794Y331278D01*
X544090Y332426D01*
X542874Y333850D01*
X542858Y333874D01*
X540750Y335982D01*
X540727Y335998D01*
X539302Y337214D01*
X537682Y338207D01*
X535926Y338934D01*
X534078Y339378D01*
X532210Y339525D01*
X532183Y339530D01*
X491062D01*
X490682Y339822D01*
X490011Y340100D01*
X489292Y340195D01*
X488572Y340100D01*
X487902Y339822D01*
X487326Y339381D01*
X486884Y338805D01*
X486607Y338134D01*
X486512Y337415D01*
X486607Y336696D01*
X486884Y336025D01*
X487326Y335450D01*
X487902Y335008D01*
X488572Y334730D01*
X489292Y334635D01*
X490011Y334730D01*
X490682Y335008D01*
X491062Y335300D01*
X532183D01*
X532280Y335319D01*
X533727Y335176D01*
X535211Y334726D01*
X536579Y333995D01*
X537704Y333072D01*
X537758Y332990D01*
X539867Y330882D01*
X539949Y330827D01*
X540871Y329703D01*
X541602Y328335D01*
X541640Y328210D01*
X541204Y327925D01*
X540024Y328933D01*
X538404Y329926D01*
X536648Y330653D01*
X534800Y331097D01*
X532933Y331244D01*
X532905Y331249D01*
X530787D01*
X530715Y331235D01*
X529164Y331113D01*
X527581Y330733D01*
X526077Y330110D01*
X525017Y329460D01*
X524921Y329473D01*
X524202Y329378D01*
X523531Y329100D01*
X522956Y328658D01*
X522514Y328083D01*
X522236Y327412D01*
X522142Y326693D01*
X522236Y325974D01*
X522514Y325303D01*
X522956Y324727D01*
X523531Y324286D01*
X524202Y324008D01*
X524921Y323913D01*
X525641Y324008D01*
X526311Y324286D01*
X526887Y324727D01*
X527328Y325303D01*
X527606Y325974D01*
X527629Y326143D01*
X528425Y326569D01*
X529583Y326920D01*
X530719Y327032D01*
X530787Y327018D01*
X532905D01*
X533002Y327038D01*
X534449Y326895D01*
X535933Y326445D01*
X537301Y325713D01*
X538426Y324791D01*
X538480Y324709D01*
X538566Y324652D01*
X539067Y323902D01*
X539243Y323017D01*
X539223Y322916D01*
Y275914D01*
X539242Y275817D01*
X539100Y274370D01*
X538650Y272885D01*
X537918Y271517D01*
X536996Y270393D01*
X536914Y270339D01*
X513036Y246461D01*
X512787Y246524D01*
X512550Y246682D01*
Y247331D01*
Y309795D01*
Y310780D01*
X512520Y310935D01*
Y311093D01*
X512135Y313025D01*
X512075Y313171D01*
X512044Y313326D01*
X511290Y315146D01*
X511202Y315278D01*
X511142Y315424D01*
X510047Y317061D01*
X509936Y317173D01*
X509848Y317305D01*
X509151Y318001D01*
X509151Y318001D01*
X509151Y318001D01*
X502118Y325035D01*
X502173Y325687D01*
X502258Y325747D01*
X502941Y325539D01*
X504309Y324808D01*
X505433Y323885D01*
X505488Y323804D01*
X519788Y309504D01*
X519812Y309488D01*
X521236Y308272D01*
X522856Y307278D01*
X524612Y306551D01*
X526460Y306107D01*
X528328Y305960D01*
X528355Y305955D01*
X528956D01*
X529336Y305663D01*
X530007Y305385D01*
X530726Y305291D01*
X531446Y305385D01*
X532116Y305663D01*
X532692Y306105D01*
X533133Y306681D01*
X533411Y307351D01*
X533506Y308070D01*
X533411Y308790D01*
X533133Y309460D01*
X532692Y310036D01*
X532116Y310478D01*
X531446Y310755D01*
X530726Y310850D01*
X530007Y310755D01*
X529336Y310478D01*
X528956Y310186D01*
X528355D01*
X528259Y310167D01*
X526811Y310309D01*
X525327Y310759D01*
X523959Y311491D01*
X522835Y312413D01*
X522780Y312495D01*
X508480Y326795D01*
X508457Y326811D01*
X507032Y328027D01*
X505412Y329020D01*
X503656Y329748D01*
X501808Y330191D01*
X499940Y330338D01*
X499913Y330344D01*
X491937D01*
X491841Y330325D01*
X490394Y330467D01*
X488909Y330917D01*
X487541Y331649D01*
X486417Y332571D01*
X486362Y332653D01*
X485173Y333842D01*
X485091Y333897D01*
X484168Y335021D01*
X483437Y336389D01*
X482987Y337874D01*
X482844Y339321D01*
X482864Y339418D01*
Y340614D01*
X482844Y340711D01*
X482987Y342158D01*
X483437Y343643D01*
X484168Y345011D01*
X484719Y345682D01*
X485133Y345737D01*
X485803Y346014D01*
X486183Y346306D01*
X544789D01*
X544874Y346323D01*
X546188Y346194D01*
D02*
G37*
G36*
X472558Y205615D02*
X472661Y205368D01*
X473515Y204256D01*
X474627Y203402D01*
X475922Y202866D01*
X477312Y202683D01*
X478702Y202866D01*
X479998Y203402D01*
X481110Y204256D01*
X481487Y204748D01*
X481987Y204578D01*
Y202729D01*
X490571D01*
X490579Y202689D01*
X490602Y202654D01*
X490613Y202612D01*
X490761Y202302D01*
X490897Y202120D01*
X491012Y201924D01*
X491083Y201871D01*
X491120Y201820D01*
X491102Y201705D01*
X490964Y201320D01*
X476000D01*
X475904Y201301D01*
X474457Y201444D01*
X472972Y201894D01*
X471604Y202625D01*
X470480Y203548D01*
X470425Y203629D01*
X470050Y204004D01*
X470113Y204251D01*
X470256Y204506D01*
X470290Y204513D01*
X470409Y204507D01*
X470595Y204573D01*
X470788Y204612D01*
X470887Y204678D01*
X470999Y204718D01*
X471441Y204983D01*
X471529Y205063D01*
X471634Y205119D01*
X471759Y205271D01*
X471905Y205404D01*
X471956Y205511D01*
X472032Y205603D01*
X472556Y205616D01*
X472558Y205615D01*
D02*
G37*
G36*
X424145Y210289D02*
X424071Y209724D01*
X424165Y209005D01*
X424443Y208335D01*
X424885Y207759D01*
X425460Y207317D01*
X426131Y207039D01*
X426850Y206945D01*
X427570Y207039D01*
X428240Y207317D01*
X428816Y207759D01*
X429258Y208335D01*
X429535Y209005D01*
X429566Y209239D01*
X430789Y209893D01*
X432213Y210325D01*
X433602Y210462D01*
X433694Y210444D01*
X433756D01*
X433853Y209953D01*
X433552Y209828D01*
X431893Y208812D01*
X430464Y207592D01*
X430407Y207554D01*
X429297Y206443D01*
X429234Y206349D01*
X428165Y205471D01*
X426847Y204767D01*
X425416Y204333D01*
X424040Y204197D01*
X423929Y204220D01*
X417553D01*
X417418Y204701D01*
X417977Y205044D01*
X419401Y206260D01*
X419425Y206276D01*
X423685Y210536D01*
X424145Y210289D01*
D02*
G37*
G36*
X455197Y208216D02*
X455252Y208134D01*
X465323Y198063D01*
X465347Y198047D01*
X466771Y196831D01*
X467063Y196652D01*
X466927Y196171D01*
X461268D01*
X461171Y196151D01*
X459724Y196294D01*
X458240Y196744D01*
X456872Y197476D01*
X455748Y198398D01*
X455693Y198480D01*
X455330Y198843D01*
X455248Y198897D01*
X454326Y200021D01*
X453595Y201389D01*
X453144Y202874D01*
X453002Y204321D01*
X453021Y204418D01*
Y207009D01*
X453313Y207390D01*
X453590Y208060D01*
X453685Y208780D01*
X453674Y208863D01*
X453833Y208973D01*
X454151Y209075D01*
X455197Y208216D01*
D02*
G37*
%LPC*%
G36*
X470949Y291129D02*
Y289505D01*
X472573D01*
X472503Y289856D01*
X472021Y290578D01*
X471300Y291060D01*
X470949Y291129D01*
D02*
G37*
G36*
X469949D02*
X469598Y291060D01*
X468876Y290578D01*
X468394Y289856D01*
X468324Y289505D01*
X469949D01*
Y291129D01*
D02*
G37*
G36*
X472573Y288505D02*
X470949D01*
Y286881D01*
X471300Y286950D01*
X472021Y287433D01*
X472503Y288154D01*
X472573Y288505D01*
D02*
G37*
G36*
X469949D02*
X468324D01*
X468394Y288154D01*
X468876Y287433D01*
X469598Y286950D01*
X469949Y286881D01*
Y288505D01*
D02*
G37*
G36*
X505539Y287676D02*
Y286051D01*
X507164D01*
X507094Y286402D01*
X506612Y287124D01*
X505890Y287606D01*
X505539Y287676D01*
D02*
G37*
G36*
X504539D02*
X504188Y287606D01*
X503467Y287124D01*
X502985Y286402D01*
X502915Y286051D01*
X504539D01*
Y287676D01*
D02*
G37*
G36*
X507164Y285051D02*
X505539D01*
Y283427D01*
X505890Y283497D01*
X506612Y283979D01*
X507094Y284700D01*
X507164Y285051D01*
D02*
G37*
G36*
X504539D02*
X502915D01*
X502985Y284700D01*
X503467Y283979D01*
X504188Y283497D01*
X504539Y283427D01*
Y285051D01*
D02*
G37*
G36*
X483728Y268069D02*
Y266445D01*
X485353D01*
X485283Y266796D01*
X484801Y267517D01*
X484079Y267999D01*
X483728Y268069D01*
D02*
G37*
G36*
X482728D02*
X482377Y267999D01*
X481656Y267517D01*
X481174Y266796D01*
X481104Y266445D01*
X482728D01*
Y268069D01*
D02*
G37*
G36*
X485353Y265445D02*
X483728D01*
Y263821D01*
X484079Y263890D01*
X484801Y264372D01*
X485283Y265094D01*
X485353Y265445D01*
D02*
G37*
G36*
X482728D02*
X481104D01*
X481174Y265094D01*
X481656Y264372D01*
X482377Y263890D01*
X482728Y263821D01*
Y265445D01*
D02*
G37*
G36*
X370461Y370786D02*
Y369161D01*
X372085D01*
X372015Y369512D01*
X371533Y370234D01*
X370812Y370716D01*
X370461Y370786D01*
D02*
G37*
G36*
X369461D02*
X369110Y370716D01*
X368388Y370234D01*
X367906Y369512D01*
X367836Y369161D01*
X369461D01*
Y370786D01*
D02*
G37*
G36*
X372085Y368161D02*
X370461D01*
Y366537D01*
X370812Y366607D01*
X371533Y367089D01*
X372015Y367810D01*
X372085Y368161D01*
D02*
G37*
G36*
X369461D02*
X367836D01*
X367906Y367810D01*
X368388Y367089D01*
X369110Y366607D01*
X369461Y366537D01*
Y368161D01*
D02*
G37*
G36*
X274528Y363522D02*
X273137Y363339D01*
X271842Y362803D01*
X270730Y361949D01*
X269876Y360837D01*
X269487Y359897D01*
X268946D01*
X268677Y360547D01*
X267915Y361539D01*
X266923Y362301D01*
X265768Y362779D01*
X265028Y362877D01*
Y357402D01*
Y351926D01*
X265768Y352024D01*
X266923Y352502D01*
X267915Y353264D01*
X268677Y354256D01*
X268946Y354906D01*
X269487D01*
X269876Y353966D01*
X270730Y352854D01*
X271842Y352000D01*
X273137Y351464D01*
X274528Y351281D01*
X275918Y351464D01*
X277213Y352000D01*
X278325Y352854D01*
X279179Y353966D01*
X279715Y355261D01*
X279898Y356652D01*
Y358152D01*
X279715Y359542D01*
X279179Y360837D01*
X278325Y361949D01*
X277213Y362803D01*
X275918Y363339D01*
X274528Y363522D01*
D02*
G37*
G36*
X333715Y358807D02*
X329465D01*
Y353807D01*
X333715D01*
Y358807D01*
D02*
G37*
G36*
X506248Y354841D02*
Y353217D01*
X507872D01*
X507803Y353568D01*
X507320Y354289D01*
X506599Y354771D01*
X506248Y354841D01*
D02*
G37*
G36*
X505248D02*
X504897Y354771D01*
X504176Y354289D01*
X503693Y353568D01*
X503624Y353217D01*
X505248D01*
Y354841D01*
D02*
G37*
G36*
X259352Y363476D02*
X248703D01*
Y351327D01*
X259352D01*
Y355739D01*
X259852Y355772D01*
X259900Y355412D01*
X260378Y354256D01*
X261140Y353264D01*
X262132Y352502D01*
X263288Y352024D01*
X264028Y351926D01*
Y357402D01*
Y362877D01*
X263288Y362779D01*
X262132Y362301D01*
X261140Y361539D01*
X260378Y360547D01*
X259900Y359392D01*
X259852Y359031D01*
X259352Y359064D01*
Y363476D01*
D02*
G37*
G36*
X333715Y352807D02*
X329465D01*
Y347807D01*
X333715D01*
Y352807D01*
D02*
G37*
G36*
X476721Y348896D02*
Y347272D01*
X478345D01*
X478275Y347623D01*
X477793Y348344D01*
X477072Y348826D01*
X476721Y348896D01*
D02*
G37*
G36*
X475721D02*
X475369Y348826D01*
X474648Y348344D01*
X474166Y347623D01*
X474096Y347272D01*
X475721D01*
Y348896D01*
D02*
G37*
G36*
X478345Y346272D02*
X476721D01*
Y344647D01*
X477072Y344717D01*
X477793Y345199D01*
X478275Y345921D01*
X478345Y346272D01*
D02*
G37*
G36*
X475721D02*
X474096D01*
X474166Y345921D01*
X474648Y345199D01*
X475369Y344717D01*
X475721Y344647D01*
Y346272D01*
D02*
G37*
G36*
X333335Y322794D02*
Y321169D01*
X334959D01*
X334889Y321520D01*
X334407Y322242D01*
X333686Y322724D01*
X333335Y322794D01*
D02*
G37*
G36*
X332335D02*
X331984Y322724D01*
X331262Y322242D01*
X330780Y321520D01*
X330710Y321169D01*
X332335D01*
Y322794D01*
D02*
G37*
G36*
X334959Y320169D02*
X333335D01*
Y318545D01*
X333686Y318615D01*
X334407Y319097D01*
X334889Y319818D01*
X334959Y320169D01*
D02*
G37*
G36*
X332335D02*
X330710D01*
X330780Y319818D01*
X331262Y319097D01*
X331984Y318615D01*
X332335Y318545D01*
Y320169D01*
D02*
G37*
G36*
X370303Y317321D02*
Y315697D01*
X371927D01*
X371858Y316048D01*
X371376Y316769D01*
X370654Y317251D01*
X370303Y317321D01*
D02*
G37*
G36*
X369303D02*
X368952Y317251D01*
X368231Y316769D01*
X367749Y316048D01*
X367679Y315697D01*
X369303D01*
Y317321D01*
D02*
G37*
G36*
X248622Y348803D02*
X247903Y348709D01*
X247232Y348431D01*
X246656Y347989D01*
X246215Y347413D01*
X245937Y346743D01*
X245842Y346024D01*
X245937Y345304D01*
X246215Y344634D01*
X246656Y344058D01*
X247232Y343616D01*
X247903Y343339D01*
X248622Y343244D01*
X249342Y343339D01*
X250012Y343616D01*
X250392Y343908D01*
X275149D01*
X275246Y343927D01*
X276693Y343785D01*
X278177Y343335D01*
X279546Y342603D01*
X280670Y341681D01*
X280724Y341599D01*
X303533Y318790D01*
X303378Y318238D01*
X302763Y317828D01*
X302281Y317106D01*
X302211Y316755D01*
X304335D01*
Y316255D01*
X304836D01*
Y314131D01*
X305187Y314200D01*
X305908Y314683D01*
X306390Y315404D01*
X306503Y315973D01*
X307030Y316258D01*
X307229Y316152D01*
X309089Y315588D01*
X309537Y315544D01*
X309538Y315543D01*
X310113Y315101D01*
X310784Y314824D01*
X311503Y314729D01*
X312223Y314824D01*
X312893Y315101D01*
X313469Y315543D01*
X313910Y316119D01*
X314188Y316789D01*
X314283Y317509D01*
X314188Y318228D01*
X313910Y318898D01*
X313469Y319474D01*
X312893Y319916D01*
X312223Y320193D01*
X311503Y320288D01*
X310784Y320193D01*
X310113Y319916D01*
X309891Y319745D01*
X309544Y319790D01*
X308165Y320362D01*
X307076Y321197D01*
X307008Y321298D01*
X283716Y344590D01*
X283693Y344606D01*
X282269Y345823D01*
X280648Y346816D01*
X278892Y347543D01*
X277044Y347987D01*
X275177Y348134D01*
X275149Y348139D01*
X250392D01*
X250012Y348431D01*
X249342Y348709D01*
X248622Y348803D01*
D02*
G37*
G36*
X303836Y315755D02*
X302211D01*
X302281Y315404D01*
X302763Y314683D01*
X303485Y314200D01*
X303836Y314131D01*
Y315755D01*
D02*
G37*
G36*
X371927Y314697D02*
X370303D01*
Y313072D01*
X370654Y313142D01*
X371376Y313624D01*
X371858Y314346D01*
X371927Y314697D01*
D02*
G37*
G36*
X369303D02*
X367679D01*
X367749Y314346D01*
X368231Y313624D01*
X368952Y313142D01*
X369303Y313072D01*
Y314697D01*
D02*
G37*
G36*
X292311Y301219D02*
Y299594D01*
X293935D01*
X293866Y299945D01*
X293384Y300667D01*
X292662Y301149D01*
X292311Y301219D01*
D02*
G37*
G36*
X291311D02*
X290960Y301149D01*
X290238Y300667D01*
X289756Y299945D01*
X289687Y299594D01*
X291311D01*
Y301219D01*
D02*
G37*
G36*
X293935Y298594D02*
X292311D01*
Y296970D01*
X292662Y297040D01*
X293384Y297522D01*
X293866Y298243D01*
X293935Y298594D01*
D02*
G37*
G36*
X291311D02*
X289687D01*
X289756Y298243D01*
X290238Y297522D01*
X290960Y297040D01*
X291311Y296970D01*
Y298594D01*
D02*
G37*
G36*
X459594Y284366D02*
Y282741D01*
X461219D01*
X461149Y283092D01*
X460667Y283814D01*
X459945Y284296D01*
X459594Y284366D01*
D02*
G37*
G36*
X458595D02*
X458244Y284296D01*
X457522Y283814D01*
X457040Y283092D01*
X456970Y282741D01*
X458595D01*
Y284366D01*
D02*
G37*
G36*
X461219Y281741D02*
X459594D01*
Y280117D01*
X459945Y280187D01*
X460667Y280669D01*
X461149Y281390D01*
X461219Y281741D01*
D02*
G37*
G36*
X458595D02*
X456970D01*
X457040Y281390D01*
X457522Y280669D01*
X458244Y280187D01*
X458595Y280117D01*
Y281741D01*
D02*
G37*
G36*
X217114Y249408D02*
Y247783D01*
X218739D01*
X218669Y248134D01*
X218187Y248856D01*
X217465Y249338D01*
X217114Y249408D01*
D02*
G37*
G36*
X216114D02*
X215763Y249338D01*
X215042Y248856D01*
X214560Y248134D01*
X214490Y247783D01*
X216114D01*
Y249408D01*
D02*
G37*
G36*
X218739Y246783D02*
X217114D01*
Y245159D01*
X217465Y245229D01*
X218187Y245711D01*
X218669Y246432D01*
X218739Y246783D01*
D02*
G37*
G36*
X216114D02*
X214490D01*
X214560Y246432D01*
X215042Y245711D01*
X215763Y245229D01*
X216114Y245159D01*
Y246783D01*
D02*
G37*
G36*
X439043Y235786D02*
Y234161D01*
X440668D01*
X440598Y234512D01*
X440116Y235234D01*
X439394Y235716D01*
X439043Y235786D01*
D02*
G37*
G36*
X438043D02*
X437692Y235716D01*
X436971Y235234D01*
X436489Y234512D01*
X436419Y234161D01*
X438043D01*
Y235786D01*
D02*
G37*
G36*
X440668Y233161D02*
X439043D01*
Y231537D01*
X439394Y231607D01*
X440116Y232089D01*
X440598Y232810D01*
X440668Y233161D01*
D02*
G37*
G36*
X438043D02*
X436419D01*
X436489Y232810D01*
X436971Y232089D01*
X437692Y231607D01*
X438043Y231537D01*
Y233161D01*
D02*
G37*
G36*
X345085Y231463D02*
X343461D01*
X343531Y231112D01*
X344013Y230391D01*
X344734Y229908D01*
X345085Y229839D01*
Y231463D01*
D02*
G37*
G36*
X329279Y226652D02*
Y225028D01*
X330904D01*
X330834Y225379D01*
X330352Y226100D01*
X329630Y226582D01*
X329279Y226652D01*
D02*
G37*
G36*
X328279D02*
X327928Y226582D01*
X327207Y226100D01*
X326725Y225379D01*
X326655Y225028D01*
X328279D01*
Y226652D01*
D02*
G37*
G36*
X330904Y224028D02*
X329279D01*
Y222403D01*
X329630Y222473D01*
X330352Y222955D01*
X330834Y223676D01*
X330904Y224028D01*
D02*
G37*
G36*
X328279D02*
X326655D01*
X326725Y223676D01*
X327207Y222955D01*
X327928Y222473D01*
X328279Y222403D01*
Y224028D01*
D02*
G37*
G36*
X439595Y222912D02*
Y221287D01*
X441219D01*
X441149Y221638D01*
X440667Y222360D01*
X439946Y222842D01*
X439595Y222912D01*
D02*
G37*
G36*
X438594D02*
X438243Y222842D01*
X437522Y222360D01*
X437040Y221638D01*
X436970Y221287D01*
X438594D01*
Y222912D01*
D02*
G37*
G36*
X441219Y220287D02*
X439595D01*
Y218663D01*
X439946Y218733D01*
X440667Y219215D01*
X441149Y219936D01*
X441219Y220287D01*
D02*
G37*
G36*
X438594D02*
X436970D01*
X437040Y219936D01*
X437522Y219215D01*
X438243Y218733D01*
X438594Y218663D01*
Y220287D01*
D02*
G37*
G36*
X549279Y211897D02*
Y202540D01*
X558636D01*
X558495Y203972D01*
X557931Y205831D01*
X557016Y207543D01*
X555784Y209044D01*
X554283Y210276D01*
X552570Y211192D01*
X550712Y211755D01*
X549279Y211897D01*
D02*
G37*
G36*
X548279D02*
X546847Y211755D01*
X544989Y211192D01*
X543276Y210276D01*
X541775Y209044D01*
X540543Y207543D01*
X539628Y205831D01*
X539064Y203972D01*
X538923Y202540D01*
X548279D01*
Y211897D01*
D02*
G37*
G36*
X219358Y211857D02*
Y202501D01*
X228715D01*
X228574Y203933D01*
X228010Y205791D01*
X227095Y207504D01*
X225863Y209005D01*
X224362Y210237D01*
X222649Y211152D01*
X220791Y211716D01*
X219358Y211857D01*
D02*
G37*
G36*
X218358D02*
X216926Y211716D01*
X215067Y211152D01*
X213355Y210237D01*
X211854Y209005D01*
X210622Y207504D01*
X209706Y205791D01*
X209143Y203933D01*
X209001Y202501D01*
X218358D01*
Y211857D01*
D02*
G37*
G36*
X439476Y199880D02*
Y198256D01*
X441101D01*
X441031Y198607D01*
X440549Y199328D01*
X439827Y199811D01*
X439476Y199880D01*
D02*
G37*
G36*
X438476D02*
X438125Y199811D01*
X437404Y199328D01*
X436922Y198607D01*
X436852Y198256D01*
X438476D01*
Y199880D01*
D02*
G37*
G36*
X441101Y197256D02*
X439476D01*
Y195632D01*
X439827Y195701D01*
X440549Y196183D01*
X441031Y196905D01*
X441101Y197256D01*
D02*
G37*
G36*
X438476D02*
X436852D01*
X436922Y196905D01*
X437404Y196183D01*
X438125Y195701D01*
X438476Y195632D01*
Y197256D01*
D02*
G37*
G36*
X558636Y201540D02*
X549279D01*
Y192183D01*
X550712Y192324D01*
X552570Y192888D01*
X554283Y193803D01*
X555784Y195035D01*
X557016Y196536D01*
X557931Y198249D01*
X558495Y200107D01*
X558636Y201540D01*
D02*
G37*
G36*
X548279D02*
X538923D01*
X539064Y200107D01*
X539628Y198249D01*
X540543Y196536D01*
X541775Y195035D01*
X543276Y193803D01*
X544989Y192888D01*
X546847Y192324D01*
X548279Y192183D01*
Y201540D01*
D02*
G37*
G36*
X228715Y201501D02*
X219358D01*
Y192144D01*
X220791Y192285D01*
X222649Y192849D01*
X224362Y193764D01*
X225863Y194996D01*
X227095Y196497D01*
X228010Y198210D01*
X228574Y200068D01*
X228715Y201501D01*
D02*
G37*
G36*
X218358D02*
X209001D01*
X209143Y200068D01*
X209706Y198210D01*
X210622Y196497D01*
X211854Y194996D01*
X213355Y193764D01*
X215067Y192849D01*
X216926Y192285D01*
X218358Y192144D01*
Y201501D01*
D02*
G37*
G36*
X333374Y193581D02*
Y191957D01*
X334998D01*
X334929Y192308D01*
X334447Y193029D01*
X333725Y193511D01*
X333374Y193581D01*
D02*
G37*
G36*
X332374D02*
X332023Y193511D01*
X331301Y193029D01*
X330820Y192308D01*
X330750Y191957D01*
X332374D01*
Y193581D01*
D02*
G37*
G36*
X375879Y194579D02*
X372623D01*
Y190142D01*
X375879D01*
Y194579D01*
D02*
G37*
G36*
X371623D02*
X368367D01*
Y190142D01*
X371623D01*
Y194579D01*
D02*
G37*
G36*
X334998Y190957D02*
X333374D01*
Y189332D01*
X333725Y189402D01*
X334447Y189884D01*
X334929Y190606D01*
X334998Y190957D01*
D02*
G37*
G36*
X332374D02*
X330750D01*
X330820Y190606D01*
X331301Y189884D01*
X332023Y189402D01*
X332374Y189332D01*
Y190957D01*
D02*
G37*
G36*
X354673Y284506D02*
Y282881D01*
X356298D01*
X356228Y283232D01*
X355746Y283954D01*
X355024Y284436D01*
X354673Y284506D01*
D02*
G37*
G36*
X353673D02*
X353322Y284436D01*
X352601Y283954D01*
X352119Y283232D01*
X352049Y282881D01*
X353673D01*
Y284506D01*
D02*
G37*
G36*
X363374Y283738D02*
Y282114D01*
X364998D01*
X364929Y282465D01*
X364446Y283187D01*
X363725Y283669D01*
X363374Y283738D01*
D02*
G37*
G36*
X362374D02*
X362023Y283669D01*
X361301Y283187D01*
X360820Y282465D01*
X360750Y282114D01*
X362374D01*
Y283738D01*
D02*
G37*
G36*
X356298Y281881D02*
X354673D01*
Y280257D01*
X355024Y280327D01*
X355746Y280809D01*
X356228Y281530D01*
X356298Y281881D01*
D02*
G37*
G36*
X353673D02*
X352049D01*
X352119Y281530D01*
X352601Y280809D01*
X353322Y280327D01*
X353673Y280257D01*
Y281881D01*
D02*
G37*
G36*
X364998Y281114D02*
X363374D01*
Y279490D01*
X363725Y279560D01*
X364446Y280042D01*
X364929Y280763D01*
X364998Y281114D01*
D02*
G37*
G36*
X362374D02*
X360750D01*
X360820Y280763D01*
X361301Y280042D01*
X362023Y279560D01*
X362374Y279490D01*
Y281114D01*
D02*
G37*
G36*
X328098Y276534D02*
Y274909D01*
X329723D01*
X329653Y275260D01*
X329171Y275982D01*
X328449Y276464D01*
X328098Y276534D01*
D02*
G37*
G36*
X327098D02*
X326747Y276464D01*
X326026Y275982D01*
X325544Y275260D01*
X325474Y274909D01*
X327098D01*
Y276534D01*
D02*
G37*
G36*
X329723Y273909D02*
X328098D01*
Y272285D01*
X328449Y272355D01*
X329171Y272837D01*
X329653Y273558D01*
X329723Y273909D01*
D02*
G37*
G36*
X327098D02*
X325474D01*
X325544Y273558D01*
X326026Y272837D01*
X326747Y272355D01*
X327098Y272285D01*
Y273909D01*
D02*
G37*
G36*
X399949Y271849D02*
Y270224D01*
X401573D01*
X401503Y270575D01*
X401021Y271297D01*
X400300Y271779D01*
X399949Y271849D01*
D02*
G37*
G36*
X398949D02*
X398598Y271779D01*
X397876Y271297D01*
X397394Y270575D01*
X397324Y270224D01*
X398949D01*
Y271849D01*
D02*
G37*
G36*
X401573Y269224D02*
X399949D01*
Y267600D01*
X400300Y267670D01*
X401021Y268152D01*
X401503Y268873D01*
X401573Y269224D01*
D02*
G37*
G36*
X398949D02*
X397324D01*
X397394Y268873D01*
X397876Y268152D01*
X398598Y267670D01*
X398949Y267600D01*
Y269224D01*
D02*
G37*
G36*
X413430Y266258D02*
Y264634D01*
X415054D01*
X414984Y264985D01*
X414502Y265706D01*
X413781Y266188D01*
X413430Y266258D01*
D02*
G37*
G36*
X412430D02*
X412079Y266188D01*
X411357Y265706D01*
X410875Y264985D01*
X410805Y264634D01*
X412430D01*
Y266258D01*
D02*
G37*
G36*
X358110Y269709D02*
X357391Y269614D01*
X356720Y269336D01*
X356582Y269230D01*
X355903Y269177D01*
X354011Y268723D01*
X352213Y267978D01*
X350554Y266961D01*
X349126Y265741D01*
X349069Y265703D01*
X323312Y239947D01*
X323250Y239853D01*
X322180Y238975D01*
X320862Y238271D01*
X319432Y237837D01*
X318055Y237701D01*
X317945Y237723D01*
X316348D01*
X315680Y238000D01*
X314961Y238095D01*
X314241Y238000D01*
X313571Y237722D01*
X312995Y237281D01*
X312553Y236705D01*
X312276Y236034D01*
X312181Y235315D01*
X312276Y234595D01*
X312553Y233925D01*
X312995Y233349D01*
X313571Y232908D01*
X314241Y232630D01*
X314961Y232535D01*
X315680Y232630D01*
X316348Y232907D01*
X317945D01*
X318011Y232920D01*
X319884Y233067D01*
X321776Y233521D01*
X323574Y234266D01*
X325233Y235283D01*
X326662Y236503D01*
X326719Y236541D01*
X352475Y262297D01*
X352538Y262391D01*
X353607Y263269D01*
X354925Y263973D01*
X356356Y264407D01*
X356874Y264458D01*
X357391Y264244D01*
X358110Y264149D01*
X358830Y264244D01*
X359500Y264522D01*
X360076Y264964D01*
X360518Y265539D01*
X360795Y266210D01*
X360890Y266929D01*
X360795Y267649D01*
X360518Y268319D01*
X360076Y268895D01*
X359500Y269336D01*
X358830Y269614D01*
X358110Y269709D01*
D02*
G37*
G36*
X415054Y263634D02*
X413430D01*
Y262010D01*
X413781Y262079D01*
X414502Y262561D01*
X414984Y263283D01*
X415054Y263634D01*
D02*
G37*
G36*
X412430D02*
X410805D01*
X410875Y263283D01*
X411357Y262561D01*
X412079Y262079D01*
X412430Y262010D01*
Y263634D01*
D02*
G37*
G36*
X358059Y256652D02*
Y255028D01*
X359683D01*
X359614Y255379D01*
X359132Y256100D01*
X358410Y256582D01*
X358059Y256652D01*
D02*
G37*
G36*
X357059D02*
X356708Y256582D01*
X355987Y256100D01*
X355504Y255379D01*
X355435Y255028D01*
X357059D01*
Y256652D01*
D02*
G37*
G36*
X315224D02*
Y255028D01*
X316849D01*
X316779Y255379D01*
X316297Y256100D01*
X315575Y256582D01*
X315224Y256652D01*
D02*
G37*
G36*
X314224D02*
X313873Y256582D01*
X313152Y256100D01*
X312670Y255379D01*
X312600Y255028D01*
X314224D01*
Y256652D01*
D02*
G37*
G36*
X359683Y254028D02*
X358059D01*
Y252403D01*
X358410Y252473D01*
X359132Y252955D01*
X359614Y253677D01*
X359683Y254028D01*
D02*
G37*
G36*
X357059D02*
X355435D01*
X355504Y253677D01*
X355987Y252955D01*
X356708Y252473D01*
X357059Y252403D01*
Y254028D01*
D02*
G37*
G36*
X316849D02*
X315224D01*
Y252403D01*
X315575Y252473D01*
X316297Y252955D01*
X316779Y253677D01*
X316849Y254028D01*
D02*
G37*
G36*
X314224D02*
X312600D01*
X312670Y253677D01*
X313152Y252955D01*
X313873Y252473D01*
X314224Y252403D01*
Y254028D01*
D02*
G37*
G36*
X296171Y248951D02*
Y247327D01*
X297796D01*
X297726Y247678D01*
X297244Y248399D01*
X296522Y248882D01*
X296171Y248951D01*
D02*
G37*
G36*
X295171D02*
X294820Y248882D01*
X294099Y248399D01*
X293617Y247678D01*
X293547Y247327D01*
X295171D01*
Y248951D01*
D02*
G37*
G36*
X273110Y259776D02*
X271817Y259649D01*
X270574Y259272D01*
X269429Y258659D01*
X268425Y257835D01*
X267601Y256831D01*
X266988Y255685D01*
X266611Y254442D01*
X266484Y253150D01*
X266611Y251857D01*
X266988Y250614D01*
X267601Y249468D01*
X268425Y248464D01*
X269429Y247640D01*
X270574Y247028D01*
X271817Y246651D01*
X273110Y246523D01*
X274403Y246651D01*
X275646Y247028D01*
X276792Y247640D01*
X277796Y248464D01*
X278620Y249468D01*
X279232Y250614D01*
X279609Y251857D01*
X279737Y253150D01*
X279609Y254442D01*
X279232Y255685D01*
X278620Y256831D01*
X277796Y257835D01*
X276792Y258659D01*
X275646Y259272D01*
X274403Y259649D01*
X273110Y259776D01*
D02*
G37*
G36*
X297796Y246327D02*
X296171D01*
Y244703D01*
X296522Y244772D01*
X297244Y245254D01*
X297726Y245976D01*
X297796Y246327D01*
D02*
G37*
G36*
X295171D02*
X293547D01*
X293617Y245976D01*
X294099Y245254D01*
X294820Y244772D01*
X295171Y244703D01*
Y246327D01*
D02*
G37*
G36*
X345787Y246835D02*
X345068Y246740D01*
X344398Y246462D01*
X343822Y246021D01*
X343380Y245445D01*
X343102Y244775D01*
X343008Y244055D01*
X343102Y243336D01*
X343380Y242665D01*
X343822Y242090D01*
X344398Y241648D01*
X345068Y241370D01*
X345787Y241275D01*
X346507Y241370D01*
X347177Y241648D01*
X347557Y241940D01*
X350955D01*
X351035Y241956D01*
X352304Y241831D01*
X353601Y241437D01*
X354796Y240798D01*
X355781Y239990D01*
X355827Y239921D01*
X355838Y239914D01*
X357065Y238907D01*
X358476Y238153D01*
X360008Y237688D01*
X361587Y237533D01*
X361600Y237530D01*
X362605D01*
X362654Y237030D01*
X362563Y237012D01*
X361996Y236899D01*
X361275Y236417D01*
X360793Y235696D01*
X360723Y235345D01*
X364972D01*
X364902Y235696D01*
X364420Y236417D01*
X363698Y236899D01*
X363131Y237012D01*
X363040Y237030D01*
X363089Y237530D01*
X374332D01*
X374712Y237238D01*
X375383Y236961D01*
X376102Y236866D01*
X376822Y236961D01*
X377492Y237238D01*
X378068Y237680D01*
X378510Y238256D01*
X378787Y238926D01*
X378882Y239646D01*
X378787Y240365D01*
X378510Y241036D01*
X378068Y241611D01*
X377492Y242053D01*
X376822Y242331D01*
X376102Y242425D01*
X375383Y242331D01*
X374712Y242053D01*
X374332Y241761D01*
X361600D01*
X361526Y241746D01*
X360576Y241872D01*
X359621Y242267D01*
X358861Y242850D01*
X358819Y242913D01*
X358774Y242943D01*
X357488Y244041D01*
X356001Y244953D01*
X354389Y245620D01*
X352693Y246027D01*
X351008Y246160D01*
X350955Y246171D01*
X347557D01*
X347177Y246462D01*
X346507Y246740D01*
X345787Y246835D01*
D02*
G37*
G36*
X364972Y234345D02*
X363347D01*
Y232720D01*
X363698Y232790D01*
X364420Y233272D01*
X364902Y233994D01*
X364972Y234345D01*
D02*
G37*
G36*
X362347D02*
X360723D01*
X360793Y233994D01*
X361275Y233272D01*
X361996Y232790D01*
X362347Y232720D01*
Y234345D01*
D02*
G37*
G36*
X534555Y323739D02*
Y322114D01*
X536179D01*
X536110Y322465D01*
X535628Y323187D01*
X534906Y323669D01*
X534555Y323739D01*
D02*
G37*
G36*
X533555D02*
X533204Y323669D01*
X532483Y323187D01*
X532001Y322465D01*
X531931Y322114D01*
X533555D01*
Y323739D01*
D02*
G37*
G36*
X536179Y321114D02*
X534555D01*
Y319490D01*
X534906Y319560D01*
X535628Y320042D01*
X536110Y320763D01*
X536179Y321114D01*
D02*
G37*
G36*
X533555D02*
X531931D01*
X532001Y320763D01*
X532483Y320042D01*
X533204Y319560D01*
X533555Y319490D01*
Y321114D01*
D02*
G37*
G36*
X515894Y306888D02*
Y305264D01*
X517518D01*
X517448Y305615D01*
X516966Y306336D01*
X516245Y306818D01*
X515894Y306888D01*
D02*
G37*
G36*
X514894D02*
X514543Y306818D01*
X513821Y306336D01*
X513339Y305615D01*
X513269Y305264D01*
X514894D01*
Y306888D01*
D02*
G37*
G36*
X517518Y304264D02*
X515894D01*
Y302639D01*
X516245Y302709D01*
X516966Y303191D01*
X517448Y303913D01*
X517518Y304264D01*
D02*
G37*
G36*
X514894D02*
X513269D01*
X513339Y303913D01*
X513821Y303191D01*
X514543Y302709D01*
X514894Y302639D01*
Y304264D01*
D02*
G37*
G36*
X513092Y214924D02*
X511702Y214741D01*
X510406Y214205D01*
X509294Y213351D01*
X508440Y212239D01*
X507904Y210943D01*
X507721Y209553D01*
Y208053D01*
X507904Y206663D01*
X508440Y205368D01*
X509294Y204256D01*
X510406Y203402D01*
X511702Y202866D01*
X513092Y202683D01*
X514482Y202866D01*
X515777Y203402D01*
X516889Y204256D01*
X517267Y204748D01*
X517767Y204578D01*
Y202729D01*
X528416D01*
Y214878D01*
X517767D01*
Y213029D01*
X517267Y212859D01*
X516889Y213351D01*
X515777Y214205D01*
X514482Y214741D01*
X513092Y214924D01*
D02*
G37*
%LPD*%
D12*
X521662Y234685D02*
X520682Y234637D01*
X519711Y234493D01*
X518759Y234254D01*
X517835Y233924D01*
X516948Y233504D01*
X516106Y233000D01*
X515318Y232415D01*
X514591Y231756D01*
X544481Y238811D02*
X545140Y239538D01*
X545724Y240327D01*
X546229Y241168D01*
X546648Y242056D01*
X546979Y242979D01*
X547217Y243931D01*
X547361Y244902D01*
X547409Y245882D01*
X536212Y234685D02*
X537192Y234733D01*
X538163Y234877D01*
X539115Y235116D01*
X540039Y235446D01*
X540926Y235866D01*
X541768Y236370D01*
X542556Y236955D01*
X543283Y237614D01*
X466819Y199559D02*
X467546Y198900D01*
X468334Y198315D01*
X469176Y197811D01*
X470063Y197391D01*
X470987Y197061D01*
X471939Y196822D01*
X472910Y196678D01*
X473890Y196630D01*
X468929Y202134D02*
X469657Y201475D01*
X470445Y200890D01*
X471286Y200385D01*
X472174Y199966D01*
X473098Y199635D01*
X474050Y199397D01*
X475020Y199253D01*
X476000Y199205D01*
X492839Y196630D02*
X493853Y196702D01*
X494845Y196918D01*
X495797Y197274D01*
X496689Y197760D01*
X497503Y198369D01*
X498221Y199088D01*
X498830Y199901D01*
X499317Y200793D01*
X499672Y201745D01*
X499888Y202738D01*
X499961Y203751D01*
X496345Y202163D02*
X496774Y203089D01*
X497037Y204076D01*
X497126Y205093D01*
X491237Y199205D02*
X492263Y199295D01*
X493256Y199562D01*
X494189Y199998D01*
X495031Y200589D01*
X495757Y201318D01*
X496345Y202163D01*
X521631Y281834D02*
X522617Y281176D01*
X523779Y280945D01*
X521630Y281835D02*
X521631Y281834D01*
X488204Y370260D02*
X487485Y370941D01*
X486728Y371580D01*
X485936Y372176D01*
X485112Y372726D01*
X484259Y373229D01*
X483379Y373684D01*
X482475Y374089D01*
X481549Y374442D01*
X480605Y374743D01*
X479646Y374990D01*
X478674Y375184D01*
X477693Y375322D01*
X476706Y375405D01*
X475716Y375433D01*
X384048D02*
X383058Y375405D01*
X382070Y375322D01*
X381090Y375184D01*
X380118Y374990D01*
X379159Y374743D01*
X378215Y374442D01*
X377289Y374089D01*
X376385Y373684D01*
X375505Y373229D01*
X374651Y372726D01*
X373828Y372176D01*
X373036Y371580D01*
X372279Y370941D01*
X371559Y370260D01*
X410472Y314897D02*
X410521Y313917D01*
X410665Y312947D01*
X410903Y311995D01*
X411234Y311071D01*
X411653Y310184D01*
X412158Y309342D01*
X412742Y308554D01*
X413401Y307826D01*
X414128Y307167D01*
X414917Y306583D01*
X415759Y306078D01*
X416646Y305659D01*
X417570Y305328D01*
X418521Y305090D01*
X419492Y304946D01*
X420472Y304897D01*
X457485Y301969D02*
X456758Y302627D01*
X455970Y303212D01*
X455128Y303717D01*
X454241Y304136D01*
X453317Y304467D01*
X452365Y304705D01*
X451394Y304849D01*
X450414Y304897D01*
X293150Y233054D02*
X293110Y233150D01*
X232214Y372244D02*
X231252Y372197D01*
X230300Y372056D01*
X229366Y371822D01*
X228459Y371497D01*
X227589Y371085D01*
X226763Y370590D01*
X225989Y370017D01*
X225276Y369370D01*
X235787Y368268D02*
X234807Y368220D01*
X233837Y368076D01*
X232885Y367837D01*
X231961Y367507D01*
X231073Y367087D01*
X230232Y366582D01*
X229444Y365998D01*
X228716Y365339D01*
X228057Y364612D01*
X227473Y363823D01*
X226968Y362982D01*
X226549Y362094D01*
X226218Y361171D01*
X225980Y360219D01*
X225836Y359248D01*
X225787Y358268D01*
X551205Y237636D02*
X551864Y238363D01*
X552449Y239152D01*
X552953Y239993D01*
X553373Y240880D01*
X553703Y241804D01*
X553942Y242756D01*
X554086Y243727D01*
X554134Y244707D01*
X456748Y209630D02*
X456021Y210289D01*
X455232Y210874D01*
X454391Y211378D01*
X453504Y211798D01*
X452580Y212128D01*
X451628Y212367D01*
X450657Y212511D01*
X449677Y212559D01*
X429733Y215433D02*
X428753Y215385D01*
X427782Y215241D01*
X426830Y215002D01*
X425906Y214672D01*
X425019Y214252D01*
X424177Y213748D01*
X423389Y213163D01*
X422662Y212504D01*
X410858Y204842D02*
X411838Y204891D01*
X412809Y205035D01*
X413761Y205273D01*
X414685Y205604D01*
X415572Y206023D01*
X416414Y206528D01*
X417202Y207112D01*
X417929Y207771D01*
X326346Y207559D02*
X325364Y207495D01*
X324398Y207303D01*
X323466Y206986D01*
X322583Y206551D01*
X321764Y206003D01*
X321024Y205354D01*
X316081Y203307D02*
X317175Y203393D01*
X318241Y203649D01*
X319254Y204069D01*
X320190Y204642D01*
X321024Y205354D01*
X297789Y313543D02*
X298825Y313601D01*
X299849Y313775D01*
X300847Y314063D01*
X301806Y314460D01*
X302715Y314962D01*
X303561Y315563D01*
X304335Y316255D01*
X305512Y319802D02*
X306279Y319130D01*
X307127Y318564D01*
X308041Y318113D01*
X309006Y317785D01*
X310006Y317586D01*
X311024Y317520D01*
X285720Y313543D02*
X284691Y313339D01*
X283819Y312756D01*
X283607Y312544D02*
X282900Y311716D01*
X282331Y310788D01*
X281914Y309782D01*
X281660Y308723D01*
X281575Y307638D01*
Y305061D02*
X281661Y303967D01*
X281917Y302901D01*
X282337Y301887D01*
X282910Y300952D01*
X283622Y300118D01*
X284346Y299563D01*
X285189Y299214D01*
X286093Y299095D01*
X335181Y318126D02*
X335908Y317467D01*
X336697Y316882D01*
X337538Y316378D01*
X338426Y315958D01*
X339350Y315627D01*
X340301Y315389D01*
X341272Y315245D01*
X342252Y315197D01*
X369961Y368661D02*
X369803Y368504D01*
X372123Y217108D02*
X372179Y216113D01*
X372345Y215131D01*
X372621Y214174D01*
X373003Y213254D01*
X373484Y212382D01*
X374061Y211569D01*
X374724Y210827D01*
X284488Y353355D02*
X284536Y352375D01*
X284680Y351404D01*
X284919Y350452D01*
X285249Y349528D01*
X285669Y348641D01*
X286174Y347799D01*
X286758Y347011D01*
X287417Y346284D01*
X530787Y329134D02*
X529708Y329063D01*
X528647Y328852D01*
X527623Y328504D01*
X526653Y328026D01*
X525753Y327425D01*
X524940Y326712D01*
X486307Y352716D02*
X485327Y352668D01*
X484357Y352524D01*
X483405Y352286D01*
X482481Y351955D01*
X481594Y351536D01*
X480752Y351031D01*
X479964Y350447D01*
X479236Y349788D01*
X483677Y347685D02*
X483018Y346958D01*
X482433Y346170D01*
X481929Y345328D01*
X481509Y344441D01*
X481179Y343517D01*
X480940Y342565D01*
X480796Y341595D01*
X480748Y340614D01*
X531126Y288292D02*
X531785Y289019D01*
X532370Y289807D01*
X532874Y290649D01*
X533294Y291536D01*
X533625Y292460D01*
X533863Y293412D01*
X534007Y294382D01*
X534055Y295363D01*
X456166Y238095D02*
X456825Y238822D01*
X457409Y239610D01*
X457914Y240452D01*
X458333Y241339D01*
X458664Y242263D01*
X458902Y243215D01*
X459046Y244186D01*
X459094Y245166D01*
X313034Y367162D02*
X312171Y367556D01*
X311274Y367865D01*
X310352Y368088D01*
X309412Y368223D01*
X308465Y368268D01*
X318465Y358268D02*
X318415Y359263D01*
X318267Y360248D01*
X318021Y361213D01*
X317681Y362149D01*
X317249Y363047D01*
X316730Y363897D01*
X316128Y364691D01*
X315451Y365422D01*
X314705Y366082D01*
X313897Y366664D01*
X313034Y367162D01*
X282220Y343095D02*
X281493Y343754D01*
X280705Y344338D01*
X279863Y344843D01*
X278976Y345262D01*
X278052Y345593D01*
X277100Y345831D01*
X276129Y345975D01*
X275149Y346024D01*
X450906Y204418D02*
X450954Y203438D01*
X451098Y202467D01*
X451336Y201515D01*
X451667Y200591D01*
X452086Y199704D01*
X452591Y198862D01*
X453175Y198074D01*
X453834Y197347D01*
X534149Y220581D02*
X533490Y219853D01*
X532906Y219065D01*
X532401Y218224D01*
X531982Y217336D01*
X531651Y216412D01*
X531413Y215460D01*
X531269Y214490D01*
X531220Y213509D01*
X521744Y194055D02*
X522805Y194115D01*
X523853Y194293D01*
X524874Y194587D01*
X525856Y194994D01*
X526786Y195508D01*
X527653Y196123D01*
X528445Y196831D01*
X528445Y196831D02*
X529153Y197623D01*
X529768Y198490D01*
X530282Y199420D01*
X530689Y200402D01*
X530983Y201423D01*
X531161Y202470D01*
X531220Y203532D01*
X454197Y196984D02*
X454924Y196325D01*
X455712Y195740D01*
X456554Y195236D01*
X457441Y194816D01*
X458365Y194486D01*
X459317Y194247D01*
X460288Y194103D01*
X461268Y194055D01*
X506984Y325299D02*
X506257Y325958D01*
X505469Y326543D01*
X504627Y327048D01*
X503740Y327467D01*
X502816Y327798D01*
X501864Y328036D01*
X500893Y328180D01*
X499913Y328228D01*
X484866Y331157D02*
X485594Y330498D01*
X486382Y329914D01*
X487223Y329409D01*
X488111Y328990D01*
X489035Y328659D01*
X489987Y328420D01*
X490957Y328276D01*
X491937Y328228D01*
X480748Y339418D02*
X480796Y338438D01*
X480940Y337467D01*
X481179Y336515D01*
X481509Y335591D01*
X481929Y334704D01*
X482433Y333862D01*
X483018Y333074D01*
X483677Y332347D01*
X521284Y310999D02*
X522011Y310340D01*
X522799Y309756D01*
X523641Y309251D01*
X524528Y308832D01*
X525452Y308501D01*
X526404Y308263D01*
X527375Y308119D01*
X528355Y308070D01*
X483937Y322716D02*
X484772Y322031D01*
X485725Y321522D01*
X486759Y321208D01*
X487834Y321102D01*
X554134Y338960D02*
X554074Y340029D01*
X553895Y341084D01*
X553598Y342112D01*
X553189Y343101D01*
X552671Y344038D01*
X552052Y344911D01*
X551339Y345709D01*
X550564Y346401D01*
X549717Y347002D01*
X548808Y347504D01*
X547848Y347902D01*
X546850Y348189D01*
X545826Y348363D01*
X544789Y348422D01*
X538410Y268843D02*
X539069Y269570D01*
X539653Y270358D01*
X540158Y271200D01*
X540577Y272087D01*
X540908Y273011D01*
X541146Y273963D01*
X541290Y274934D01*
X541339Y275914D01*
X500055Y230488D02*
X499396Y229761D01*
X498811Y228973D01*
X498307Y228131D01*
X497887Y227244D01*
X497557Y226320D01*
X497318Y225368D01*
X497174Y224397D01*
X497126Y223417D01*
X539976Y326205D02*
X539249Y326864D01*
X538461Y327449D01*
X537619Y327953D01*
X536732Y328373D01*
X535808Y328703D01*
X534856Y328942D01*
X533885Y329086D01*
X532905Y329134D01*
X541339Y322916D02*
X541249Y323823D01*
X540984Y324696D01*
X540555Y325500D01*
X539976Y326205D01*
X458559Y212504D02*
X457832Y213163D01*
X457044Y213748D01*
X456202Y214252D01*
X455315Y214672D01*
X454391Y215002D01*
X453439Y215241D01*
X452468Y215385D01*
X451488Y215433D01*
X370407Y207771D02*
X371134Y207112D01*
X371922Y206528D01*
X372764Y206023D01*
X373651Y205604D01*
X374575Y205273D01*
X375527Y205035D01*
X376498Y204891D01*
X377478Y204842D01*
X541362Y267150D02*
X542021Y267877D01*
X542606Y268665D01*
X543111Y269507D01*
X543530Y270394D01*
X543861Y271318D01*
X544099Y272270D01*
X544243Y273241D01*
X544291Y274221D01*
X502890Y228677D02*
X502231Y227950D01*
X501646Y227162D01*
X501141Y226320D01*
X500722Y225433D01*
X500391Y224509D01*
X500153Y223557D01*
X500009Y222586D01*
X499961Y221606D01*
X539254Y334486D02*
X538527Y335145D01*
X537739Y335730D01*
X536897Y336234D01*
X536010Y336654D01*
X535086Y336984D01*
X534134Y337223D01*
X533163Y337367D01*
X532183Y337415D01*
X544291Y325307D02*
X544243Y326287D01*
X544099Y327258D01*
X543861Y328209D01*
X543530Y329134D01*
X543111Y330021D01*
X542606Y330862D01*
X542021Y331651D01*
X541362Y332378D01*
X433694Y212559D02*
X432745Y212512D01*
X431806Y212373D01*
X430884Y212142D01*
X429990Y211822D01*
X429132Y211416D01*
X428317Y210928D01*
X427554Y210362D01*
X426850Y209724D01*
X470974Y288480D02*
X471701Y287821D01*
X472489Y287236D01*
X473331Y286732D01*
X474218Y286312D01*
X475142Y285982D01*
X476094Y285743D01*
X477065Y285599D01*
X478045Y285551D01*
X375715Y291520D02*
X375667Y292501D01*
X375523Y293471D01*
X375285Y294423D01*
X374954Y295347D01*
X374535Y296234D01*
X374030Y297076D01*
X373446Y297864D01*
X372786Y298591D01*
X364937Y306441D02*
X364210Y307100D01*
X363421Y307685D01*
X362580Y308189D01*
X361693Y308609D01*
X360769Y308940D01*
X359817Y309178D01*
X358846Y309322D01*
X357866Y309370D01*
X464543Y342110D02*
X463816Y342770D01*
X463028Y343354D01*
X462186Y343859D01*
X461299Y344278D01*
X460375Y344609D01*
X459423Y344847D01*
X458452Y344991D01*
X457472Y345039D01*
X357323Y241417D02*
X356570Y242090D01*
X355746Y242675D01*
X354862Y243163D01*
X353929Y243550D01*
X352959Y243829D01*
X351963Y243999D01*
X350955Y244055D01*
X357323Y241417D02*
X358045Y240801D01*
X358854Y240305D01*
X359731Y239942D01*
X360654Y239720D01*
X361600Y239646D01*
X521662Y234685D02*
X536212D01*
X503465Y220630D02*
X514591Y231756D01*
X543283Y237614D02*
X544481Y238811D01*
X547409Y245882D02*
Y337252D01*
X456748Y209630D02*
X466819Y199559D01*
X473890Y196630D02*
X492839D01*
X458559Y212504D02*
X468929Y202134D01*
X499961Y203751D02*
Y221606D01*
X497126Y205093D02*
Y223417D01*
X476000Y199205D02*
X491237D01*
X521630Y281835D02*
X521631Y281834D01*
X515394Y288072D02*
X521630Y281835D01*
X523779Y280945D02*
X531126Y288292D01*
X384048Y375433D02*
X475716D01*
X410472Y314897D02*
Y369933D01*
X486307Y352716D02*
X505748D01*
X488204Y370260D02*
X505748Y352716D01*
X342252Y315197D02*
X369803D01*
Y368504D01*
X459094Y245166D02*
Y282241D01*
X420472Y304897D02*
X430326D01*
X457485Y301969D02*
X470449Y289005D01*
X293150Y217717D02*
Y233054D01*
X225787Y279016D02*
Y358268D01*
X539855Y226286D02*
X551205Y237636D01*
X450906Y204418D02*
Y208780D01*
X433694Y212559D02*
X449677D01*
X417929Y207771D02*
X422662Y212504D01*
X377478Y204842D02*
X410858D01*
X326346Y207559D02*
X340433D01*
X338150Y224528D02*
X345585Y231963D01*
X328780Y224528D02*
X338150D01*
X282220Y343095D02*
X305512Y319802D01*
X286093Y299095D02*
X291811D01*
X285720Y313543D02*
X297789D01*
X283607Y312544D02*
X283819Y312756D01*
X281575Y305061D02*
Y307638D01*
X287874Y309370D02*
X357866D01*
X332835Y320472D02*
X335181Y318126D01*
X332835Y320472D02*
Y320669D01*
X476221Y346772D02*
X479236Y349788D01*
X369961Y368661D02*
X371559Y370260D01*
X293582Y203307D02*
X316081D01*
X293110Y203189D02*
X293582Y203307D01*
X439094Y221024D02*
X456166Y238095D01*
X439094Y220787D02*
Y221024D01*
X372123Y217108D02*
Y220276D01*
X232214Y372244D02*
X288110D01*
X284488Y353355D02*
Y363661D01*
X287417Y346284D02*
X288032Y345669D01*
X524921Y326693D02*
X524940Y326712D01*
X484413Y348422D02*
X544789D01*
X483677Y347685D02*
X484413Y348422D01*
X534055Y295363D02*
Y321614D01*
X515394Y288072D02*
Y304764D01*
X430326Y304897D02*
X450414D01*
X318465Y353307D02*
Y358268D01*
X235787Y368268D02*
X308465D01*
X248622Y346024D02*
X275149D01*
X286811Y318347D02*
X286939Y318218D01*
X243358Y318347D02*
X286811D01*
X534149Y220581D02*
X539855Y226286D01*
X531220Y203532D02*
Y213509D01*
X461268Y194055D02*
X521744D01*
X453834Y197347D02*
X454197Y196984D01*
X491937Y328228D02*
X499913D01*
X483677Y332347D02*
X484866Y331157D01*
X480748Y339418D02*
Y340614D01*
X506984Y325299D02*
X521284Y310999D01*
X528355Y308070D02*
X530726D01*
X464543Y342110D02*
X483937Y322716D01*
X554134Y244707D02*
Y338960D01*
X500055Y230488D02*
X538410Y268843D01*
X368336Y209842D02*
X370407Y207771D01*
X530787Y329134D02*
X532905D01*
X541339Y275914D02*
Y322916D01*
X429733Y215433D02*
X451488D01*
X502890Y228677D02*
X541362Y267150D01*
X489292Y337415D02*
X532183D01*
X539254Y334486D02*
X541362Y332378D01*
X544291Y274221D02*
Y325307D01*
X478045Y285551D02*
X505039D01*
X470449Y289005D02*
X470974Y288480D01*
X487834Y321102D02*
X489016D01*
X375715Y246181D02*
Y291520D01*
X364937Y306441D02*
X372786Y298591D01*
X434646Y345039D02*
X457472D01*
X345787Y244055D02*
X350955D01*
X361600Y239646D02*
X376102D01*
D53*
X369803Y315197D02*
X370042Y313997D01*
X370722Y312979D01*
X383292Y300409D02*
X384019Y299750D01*
X384807Y299166D01*
X385649Y298661D01*
X386536Y298241D01*
X387460Y297911D01*
X388412Y297673D01*
X389383Y297529D01*
X390363Y297480D01*
X450015Y294551D02*
X449288Y295210D01*
X448500Y295795D01*
X447658Y296300D01*
X446771Y296719D01*
X445847Y297050D01*
X444895Y297288D01*
X443925Y297432D01*
X442944Y297480D01*
X459094Y282241D02*
X459028Y283260D01*
X458829Y284260D01*
X458501Y285226D01*
X458049Y286142D01*
X457482Y286990D01*
X456810Y287757D01*
X225276Y250897D02*
X225227Y251877D01*
X225083Y252848D01*
X224845Y253800D01*
X224514Y254724D01*
X224095Y255611D01*
X223590Y256453D01*
X223006Y257241D01*
X222347Y257968D01*
X219819Y363913D02*
X219160Y363186D01*
X218575Y362398D01*
X218071Y361556D01*
X217651Y360669D01*
X217320Y359745D01*
X217082Y358793D01*
X216938Y357822D01*
X216890Y356842D01*
Y267567D02*
X216938Y266587D01*
X217082Y265616D01*
X217320Y264665D01*
X217651Y263740D01*
X218071Y262853D01*
X218575Y262012D01*
X219160Y261223D01*
X219819Y260496D01*
X271693Y300197D02*
X272365Y300949D01*
X272948Y301771D01*
X273436Y302654D01*
X273822Y303586D01*
X274101Y304555D01*
X274270Y305549D01*
X274327Y306556D01*
X269032Y299095D02*
X270006Y299223D01*
X270913Y299599D01*
X271693Y300197D01*
X245638Y299095D02*
X244658Y299046D01*
X243687Y298902D01*
X242735Y298664D01*
X241811Y298333D01*
X240924Y297914D01*
X240083Y297409D01*
X239294Y296825D01*
X238567Y296166D01*
X236866Y294464D02*
X236207Y293737D01*
X235622Y292949D01*
X235118Y292107D01*
X234698Y291220D01*
X234368Y290296D01*
X234129Y289344D01*
X233985Y288373D01*
X233937Y287393D01*
X225276Y227489D02*
X225324Y226508D01*
X225468Y225538D01*
X225706Y224586D01*
X226037Y223662D01*
X226456Y222775D01*
X226961Y221933D01*
X227545Y221145D01*
X228204Y220417D01*
X232379Y216243D02*
X233106Y215584D01*
X233895Y214999D01*
X234736Y214495D01*
X235624Y214075D01*
X236547Y213744D01*
X237499Y213506D01*
X238470Y213362D01*
X239450Y213314D01*
X494173Y250858D02*
X494125Y251838D01*
X493981Y252809D01*
X493743Y253761D01*
X493412Y254685D01*
X492992Y255572D01*
X492488Y256414D01*
X491903Y257202D01*
X491244Y257929D01*
X490241Y224966D02*
X489582Y224238D01*
X488998Y223450D01*
X488493Y222608D01*
X488073Y221721D01*
X487743Y220797D01*
X487504Y219845D01*
X487360Y218875D01*
X487312Y217895D01*
X491244Y225969D02*
X491903Y226696D01*
X492488Y227484D01*
X492992Y228326D01*
X493412Y229213D01*
X493743Y230137D01*
X493981Y231089D01*
X494125Y232060D01*
X494173Y233040D01*
X370722Y312979D02*
X383292Y300409D01*
X390363Y297480D02*
X442944D01*
X450015Y294551D02*
X456810Y287757D01*
X253110Y233150D02*
X293110D01*
X219819Y363913D02*
X225276Y369370D01*
Y227489D02*
Y235197D01*
Y250897D01*
X219819Y260496D02*
X222347Y257968D01*
X216890Y267567D02*
Y356842D01*
X216614Y204245D02*
X218858Y202000D01*
X216614Y204245D02*
Y247284D01*
X233937Y223307D02*
Y287393D01*
X245638Y299095D02*
X269032D01*
X236866Y294464D02*
X238567Y296166D01*
X274327Y306556D02*
Y311496D01*
X237559Y207520D02*
X308724D01*
X239450Y213314D02*
X276772D01*
X228204Y220417D02*
X232379Y216243D01*
X483228Y265945D02*
X491244Y257929D01*
X494173Y233040D02*
Y250858D01*
X490241Y224966D02*
X491244Y225969D01*
X487312Y208803D02*
Y217895D01*
X253110Y273150D02*
X293110D01*
X253110Y233150D02*
Y273150D01*
D54*
X432513Y195079D02*
X433536Y195136D01*
X434547Y195308D01*
X435532Y195592D01*
X436479Y195984D01*
X437376Y196480D01*
X438212Y197073D01*
X438976Y197756D01*
X439182Y208780D02*
X438201Y208731D01*
X437231Y208587D01*
X436279Y208349D01*
X435355Y208018D01*
X434468Y207599D01*
X433626Y207094D01*
X432838Y206510D01*
X432110Y205851D01*
X423929Y201811D02*
X424909Y201859D01*
X425880Y202003D01*
X426832Y202242D01*
X427756Y202572D01*
X428643Y202992D01*
X429484Y203496D01*
X430273Y204081D01*
X431000Y204740D01*
X348480Y212937D02*
X347753Y213596D01*
X346965Y214181D01*
X346123Y214685D01*
X345236Y215105D01*
X344312Y215436D01*
X343360Y215674D01*
X342389Y215818D01*
X341409Y215866D01*
X330599D02*
X329619Y215818D01*
X328648Y215674D01*
X327696Y215436D01*
X326772Y215105D01*
X325885Y214685D01*
X325043Y214181D01*
X324255Y213596D01*
X323528Y212937D01*
X356677Y204740D02*
X357404Y204081D01*
X358193Y203496D01*
X359034Y202992D01*
X359922Y202572D01*
X360846Y202242D01*
X361798Y202003D01*
X362768Y201859D01*
X363749Y201811D01*
X318602Y209961D02*
X319520Y210051D01*
X320403Y210319D01*
X321216Y210753D01*
X321929Y211339D01*
X291275Y329315D02*
X290548Y329974D01*
X289760Y330559D01*
X288918Y331063D01*
X288031Y331483D01*
X287107Y331814D01*
X286155Y332052D01*
X285185Y332196D01*
X284204Y332244D01*
X247213D02*
X246233Y332196D01*
X245262Y332052D01*
X244310Y331814D01*
X243386Y331483D01*
X242499Y331063D01*
X241657Y330559D01*
X240869Y329974D01*
X240142Y329315D01*
X237653Y326827D02*
X236994Y326099D01*
X236410Y325311D01*
X235905Y324469D01*
X235486Y323582D01*
X235155Y322658D01*
X234917Y321706D01*
X234773Y320736D01*
X234724Y319756D01*
X260773Y303189D02*
X261643Y303304D01*
X262454Y303639D01*
X263150Y304173D01*
X239354Y306118D02*
X240082Y305459D01*
X240870Y304874D01*
X241712Y304370D01*
X242599Y303950D01*
X243523Y303620D01*
X244475Y303381D01*
X245445Y303237D01*
X246426Y303189D01*
X234724Y314890D02*
X234773Y313910D01*
X234917Y312939D01*
X235155Y311987D01*
X235486Y311063D01*
X235905Y310176D01*
X236410Y309334D01*
X236994Y308546D01*
X237653Y307819D01*
X263150Y304173D02*
X263788Y305006D01*
X264190Y305975D01*
X264327Y307015D01*
X340638Y195079D02*
X339658Y195031D01*
X338687Y194887D01*
X337735Y194648D01*
X336811Y194318D01*
X335924Y193898D01*
X335083Y193394D01*
X334294Y192809D01*
X333567Y192150D01*
X222851Y198008D02*
X223578Y197349D01*
X224366Y196764D01*
X225208Y196259D01*
X226095Y195840D01*
X227019Y195509D01*
X227971Y195271D01*
X228942Y195127D01*
X229922Y195079D01*
X438543Y222118D02*
X439094Y220787D01*
X317945Y235315D02*
X318925Y235363D01*
X319895Y235507D01*
X320847Y235746D01*
X321771Y236076D01*
X322658Y236496D01*
X323500Y237000D01*
X324288Y237585D01*
X325015Y238244D01*
X357843Y266929D02*
X356863Y266881D01*
X355892Y266737D01*
X354940Y266498D01*
X354016Y266168D01*
X353129Y265748D01*
X352287Y265244D01*
X351499Y264659D01*
X350772Y264000D01*
X408110Y256921D02*
X408062Y257901D01*
X407918Y258872D01*
X407680Y259824D01*
X407349Y260748D01*
X406929Y261635D01*
X406425Y262476D01*
X405840Y263265D01*
X405181Y263992D01*
X399303Y269870D02*
X398576Y270530D01*
X397787Y271114D01*
X396946Y271619D01*
X396059Y272038D01*
X395134Y272369D01*
X394183Y272607D01*
X393212Y272751D01*
X392232Y272799D01*
X359945Y256914D02*
X360604Y257641D01*
X361189Y258429D01*
X361693Y259271D01*
X362113Y260158D01*
X362443Y261082D01*
X362682Y262034D01*
X362826Y263004D01*
X362874Y263985D01*
X325354Y258189D02*
X326015Y258943D01*
X326572Y259776D01*
X327015Y260675D01*
X327337Y261624D01*
X327533Y262607D01*
X327598Y263607D01*
X317551Y254528D02*
X318531Y254576D01*
X319502Y254720D01*
X320454Y254958D01*
X321378Y255289D01*
X322265Y255708D01*
X323107Y256213D01*
X323895Y256797D01*
X324622Y257456D01*
X441535Y291890D02*
X443307Y290118D01*
X378632Y291890D02*
X441535D01*
X443307Y276102D02*
Y290118D01*
X443386Y258661D02*
Y276024D01*
X443307Y276102D02*
X443386Y276024D01*
X439182Y208780D02*
X450906D01*
X431000Y204740D02*
X432110Y205851D01*
X372123Y195079D02*
X432513D01*
X330599Y215866D02*
X341409D01*
X348480Y212937D02*
X356677Y204740D01*
X321929Y211339D02*
X323528Y212937D01*
X363749Y201811D02*
X423929D01*
X316843Y209961D02*
X318602D01*
X308071Y227441D02*
X323425D01*
X301102Y220472D02*
X308071Y227441D01*
X296076Y220472D02*
X301102D01*
X291275Y329315D02*
X304335Y316255D01*
X247213Y332244D02*
X284204D01*
X237653Y326827D02*
X240142Y329315D01*
X246426Y303189D02*
X260773D01*
X237653Y307819D02*
X239354Y306118D01*
X234724Y314890D02*
Y319756D01*
X264327Y307015D02*
Y311496D01*
X340638Y195079D02*
X372123D01*
X229922D02*
X340638D01*
X218858Y202000D02*
X222851Y198008D01*
X332874Y191457D02*
X333567Y192150D01*
X438543Y222118D02*
Y233661D01*
X346220Y236339D02*
X355197Y227362D01*
X332323Y236339D02*
X346220D01*
X323425Y227441D02*
X332323Y236339D01*
X325015Y238244D02*
X350772Y264000D01*
X355197Y227362D02*
X406378D01*
X322677Y291890D02*
X372441D01*
X243543D02*
X322677D01*
X408110Y229095D02*
Y255416D01*
X406378Y227362D02*
X408110Y229095D01*
Y255416D02*
Y256921D01*
X399303Y269870D02*
X399449Y269724D01*
X405181Y263992D01*
X409033Y256339D02*
X441063D01*
X408110Y255416D02*
X409033Y256339D01*
X441063D02*
X443386Y258661D01*
X243937Y220472D02*
X288819D01*
X242244Y222165D02*
X243937Y220472D01*
X242244Y222165D02*
Y290591D01*
X243543Y291890D01*
X327598Y274409D02*
Y286968D01*
X322677Y291890D02*
X327598Y286968D01*
X362874Y263985D02*
Y281614D01*
X357559Y254528D02*
X359945Y256914D01*
X324622Y257456D02*
X325354Y258189D01*
X314724Y254528D02*
X317551D01*
X327598Y263607D02*
Y274409D01*
X314961Y235315D02*
X317945D01*
X357843Y266929D02*
X358110D01*
D79*
X218819Y403063D02*
D03*
X548740Y403142D02*
D03*
X548779Y202040D02*
D03*
X218858Y202000D02*
D03*
D80*
X477312Y208803D02*
D03*
X513092Y208803D02*
D03*
X308465Y353307D02*
D03*
X318465D02*
D03*
X274528Y357402D02*
D03*
X264528D02*
D03*
X274327Y311496D02*
D03*
X264327Y311496D02*
D03*
D81*
X487312Y208803D02*
D03*
X523092Y208803D02*
D03*
X328965Y353307D02*
D03*
X254028Y357402D02*
D03*
X253827Y311496D02*
D03*
D82*
X253110Y273150D02*
D03*
Y233150D02*
D03*
X293110D02*
D03*
Y273150D02*
D03*
X273110Y253150D02*
D03*
D83*
X551181Y354331D02*
D03*
X531496D02*
D03*
Y314961D02*
D03*
Y275591D02*
D03*
X511811Y354331D02*
D03*
X492126D02*
D03*
X472441D02*
D03*
X462598Y374016D02*
D03*
X452756Y236221D02*
D03*
X413386D02*
D03*
X383858Y374016D02*
D03*
X364173D02*
D03*
X344488D02*
D03*
Y334646D02*
D03*
X324803Y374016D02*
D03*
Y334646D02*
D03*
X295276Y196850D02*
D03*
X285433Y216535D02*
D03*
X265748Y334646D02*
D03*
X236221Y196850D02*
D03*
X503937Y251969D02*
D03*
X468504Y275591D02*
D03*
X433071Y314961D02*
D03*
X425197D02*
D03*
X417323D02*
D03*
X409449D02*
D03*
X405512Y307087D02*
D03*
D84*
X446929Y364213D02*
D03*
X499724Y278976D02*
D03*
X495118Y298568D02*
D03*
X493701Y300610D02*
D03*
X410472Y369933D02*
D03*
X470449Y289005D02*
D03*
X295671Y246827D02*
D03*
X216614Y247284D02*
D03*
X438976Y197756D02*
D03*
X340433Y207559D02*
D03*
X293150Y217717D02*
D03*
X316843Y209961D02*
D03*
X291811Y299095D02*
D03*
X287874Y309370D02*
D03*
X304335Y316255D02*
D03*
X332835Y320669D02*
D03*
X311503Y317509D02*
D03*
X233937Y223307D02*
D03*
X308819Y207559D02*
D03*
X293110Y203189D02*
D03*
X276772Y213314D02*
D03*
X237559Y207520D02*
D03*
X332874Y191457D02*
D03*
X438543Y233661D02*
D03*
X374724Y210827D02*
D03*
X284488Y363661D02*
D03*
X288032Y345669D02*
D03*
X524921Y326693D02*
D03*
X476221Y346772D02*
D03*
X484413Y348422D02*
D03*
X505748Y352716D02*
D03*
X439094Y220787D02*
D03*
X225276Y369370D02*
D03*
X288110Y372244D02*
D03*
X328780Y224528D02*
D03*
X345585Y231963D02*
D03*
X369961Y368661D02*
D03*
X248622Y346024D02*
D03*
X286939Y318218D02*
D03*
X243358Y318347D02*
D03*
X225787Y279016D02*
D03*
X369803Y315197D02*
D03*
X225276Y235197D02*
D03*
X547409Y337252D02*
D03*
X530726Y308070D02*
D03*
X459094Y282241D02*
D03*
X483228Y265945D02*
D03*
X534055Y321614D02*
D03*
X503465Y220630D02*
D03*
X450906Y208780D02*
D03*
X426850Y209724D02*
D03*
X505039Y285551D02*
D03*
X489016Y321102D02*
D03*
X489292Y337415D02*
D03*
X368336Y209842D02*
D03*
X539855Y226286D02*
D03*
X515394Y304764D02*
D03*
X362847Y234845D02*
D03*
X412930Y264134D02*
D03*
X354173Y282381D02*
D03*
X375715Y246181D02*
D03*
X434646Y345039D02*
D03*
X430326Y304897D02*
D03*
X399449Y269724D02*
D03*
X362874Y281614D02*
D03*
X357559Y254528D02*
D03*
X327598Y274409D02*
D03*
X314724Y254528D02*
D03*
X376102Y239646D02*
D03*
X345787Y244055D02*
D03*
X314961Y235315D02*
D03*
X358110Y266929D02*
D03*
D85*
X372123Y220276D02*
D03*
Y195079D02*
D03*
M02*
