G04*
G04 #@! TF.GenerationSoftware,Altium Limited,Altium Designer,20.2.7 (254)*
G04*
G04 Layer_Color=16711935*
%FSLAX25Y25*%
%MOIN*%
G70*
G04*
G04 #@! TF.SameCoordinates,2A94134D-DB51-4003-A73D-B3C5D03A2459*
G04*
G04*
G04 #@! TF.FilePolarity,Positive*
G04*
G01*
G75*
%ADD11C,0.00300*%
%ADD14C,0.00100*%
%ADD19C,0.00299*%
%ADD92C,0.10827*%
D11*
X216883Y416664D02*
X215908Y416624D01*
X214939Y416503D01*
X213984Y416303D01*
X213048Y416024D01*
X212139Y415669D01*
X211262Y415241D01*
X210423Y414741D01*
X209629Y414174D01*
X208884Y413543D01*
X208194Y412853D01*
X207563Y412108D01*
X206996Y411313D01*
X206496Y410475D01*
X206067Y409598D01*
X205712Y408688D01*
X205434Y407753D01*
X205234Y406797D01*
X205113Y405829D01*
X205072Y404853D01*
Y200129D02*
X205113Y199153D01*
X205234Y198185D01*
X205434Y197229D01*
X205712Y196294D01*
X206067Y195384D01*
X206496Y194507D01*
X206996Y193669D01*
X207563Y192874D01*
X208194Y192129D01*
X208884Y191439D01*
X209629Y190808D01*
X210423Y190241D01*
X211262Y189741D01*
X212139Y189313D01*
X213048Y188958D01*
X213984Y188679D01*
X214939Y188479D01*
X215908Y188358D01*
X216883Y188318D01*
X562789Y404853D02*
X562749Y405829D01*
X562628Y406797D01*
X562428Y407753D01*
X562149Y408688D01*
X561794Y409598D01*
X561365Y410475D01*
X560866Y411313D01*
X560298Y412108D01*
X559667Y412853D01*
X558977Y413543D01*
X558232Y414174D01*
X557438Y414741D01*
X556599Y415241D01*
X555722Y415669D01*
X554813Y416024D01*
X553877Y416303D01*
X552922Y416503D01*
X551953Y416624D01*
X550978Y416664D01*
Y188318D02*
X551953Y188358D01*
X552922Y188479D01*
X553877Y188679D01*
X554813Y188958D01*
X555722Y189313D01*
X556599Y189741D01*
X557438Y190241D01*
X558232Y190808D01*
X558977Y191439D01*
X559667Y192129D01*
X560298Y192874D01*
X560866Y193669D01*
X561365Y194507D01*
X561794Y195384D01*
X562149Y196294D01*
X562428Y197229D01*
X562628Y198185D01*
X562749Y199153D01*
X562789Y200129D01*
X216883Y416664D02*
X550978D01*
X216883Y188318D02*
X550978D01*
X556631Y256957D02*
Y386457D01*
X561531Y391357D01*
X556631Y256957D02*
X561631Y251957D01*
X205072Y200129D02*
Y404853D01*
X562789Y392616D02*
Y404853D01*
Y199657D02*
Y250799D01*
X561531Y391357D02*
X562789Y392616D01*
D14*
Y404853D02*
D03*
D03*
X561531Y391357D02*
D03*
X562789Y392616D02*
D03*
D03*
X561531Y391357D02*
D03*
X562789Y250799D02*
D03*
X561631Y251957D02*
D03*
D03*
X562789Y250799D02*
D03*
Y199657D02*
D03*
X550978Y416664D02*
D03*
D03*
X556631Y386457D02*
D03*
D03*
Y256957D02*
D03*
D03*
X550978Y188318D02*
D03*
D03*
X216883Y416664D02*
D03*
D03*
Y188318D02*
D03*
D03*
X205072Y404853D02*
D03*
Y200129D02*
D03*
D19*
X561631Y251957D02*
X562789Y250799D01*
D92*
X224144Y202050D02*
X224052Y203045D01*
X223778Y204005D01*
X223333Y204900D01*
X222731Y205697D01*
X221993Y206370D01*
X221144Y206896D01*
X220212Y207257D01*
X219230Y207440D01*
X218231D01*
X217249Y207257D01*
X216318Y206896D01*
X215468Y206370D01*
X214730Y205697D01*
X214128Y204900D01*
X213683Y204005D01*
X213409Y203045D01*
X213317Y202050D01*
X213409Y201055D01*
X213683Y200094D01*
X214128Y199200D01*
X214730Y198403D01*
X215468Y197730D01*
X216318Y197204D01*
X217249Y196843D01*
X218231Y196660D01*
X219230D01*
X220212Y196843D01*
X221144Y197204D01*
X221993Y197730D01*
X222731Y198403D01*
X223333Y199200D01*
X223778Y200094D01*
X224052Y201055D01*
X224144Y202050D01*
Y403150D02*
X224052Y404144D01*
X223778Y405105D01*
X223333Y406000D01*
X222731Y406797D01*
X221993Y407470D01*
X221144Y407996D01*
X220212Y408357D01*
X219230Y408540D01*
X218231D01*
X217249Y408357D01*
X216318Y407996D01*
X215468Y407470D01*
X214730Y406797D01*
X214128Y406000D01*
X213683Y405105D01*
X213409Y404144D01*
X213317Y403150D01*
X213409Y402155D01*
X213683Y401194D01*
X214128Y400300D01*
X214730Y399503D01*
X215468Y398830D01*
X216318Y398304D01*
X217249Y397943D01*
X218231Y397760D01*
X219230D01*
X220212Y397943D01*
X221144Y398304D01*
X221993Y398830D01*
X222731Y399503D01*
X223333Y400300D01*
X223778Y401194D01*
X224052Y402155D01*
X224144Y403150D01*
X554109D02*
X554016Y404144D01*
X553743Y405105D01*
X553298Y406000D01*
X552696Y406797D01*
X551958Y407470D01*
X551108Y407996D01*
X550177Y408357D01*
X549195Y408540D01*
X548196D01*
X547214Y408357D01*
X546282Y407996D01*
X545433Y407470D01*
X544695Y406797D01*
X544093Y406000D01*
X543647Y405105D01*
X543374Y404144D01*
X543282Y403150D01*
X543374Y402155D01*
X543647Y401194D01*
X544093Y400300D01*
X544695Y399503D01*
X545433Y398830D01*
X546282Y398304D01*
X547214Y397943D01*
X548196Y397760D01*
X549195D01*
X550177Y397943D01*
X551108Y398304D01*
X551958Y398830D01*
X552696Y399503D01*
X553298Y400300D01*
X553743Y401194D01*
X554016Y402155D01*
X554109Y403150D01*
Y202050D02*
X554016Y203045D01*
X553743Y204005D01*
X553298Y204900D01*
X552696Y205697D01*
X551958Y206370D01*
X551108Y206896D01*
X550177Y207257D01*
X549195Y207440D01*
X548196D01*
X547214Y207257D01*
X546282Y206896D01*
X545433Y206370D01*
X544695Y205697D01*
X544093Y204900D01*
X543647Y204005D01*
X543374Y203045D01*
X543282Y202050D01*
X543374Y201055D01*
X543647Y200094D01*
X544093Y199200D01*
X544695Y198403D01*
X545433Y197730D01*
X546282Y197204D01*
X547214Y196843D01*
X548196Y196660D01*
X549195D01*
X550177Y196843D01*
X551108Y197204D01*
X551958Y197730D01*
X552696Y198403D01*
X553298Y199200D01*
X553743Y200094D01*
X554016Y201055D01*
X554109Y202050D01*
M02*
