G04*
G04 #@! TF.GenerationSoftware,Altium Limited,Altium Designer,20.2.7 (254)*
G04*
G04 Layer_Color=8388736*
%FSLAX25Y25*%
%MOIN*%
G70*
G04*
G04 #@! TF.SameCoordinates,2A94134D-DB51-4003-A73D-B3C5D03A2459*
G04*
G04*
G04 #@! TF.FilePolarity,Negative*
G04*
G01*
G75*
%ADD21R,0.10642X0.06706*%
%ADD22R,0.04343X0.03162*%
%ADD23R,0.03359X0.06804*%
%ADD24R,0.13005X0.10249*%
%ADD25R,0.03162X0.04343*%
%ADD26R,0.12611X0.12611*%
%ADD27R,0.05800X0.06300*%
%ADD28R,0.03950X0.04343*%
%ADD29R,0.04343X0.04540*%
%ADD30R,0.03543X0.03740*%
%ADD31R,0.04343X0.05524*%
%ADD32R,0.04343X0.05524*%
%ADD33R,0.05721X0.03162*%
%ADD34R,0.10642X0.04147*%
%ADD35R,0.04147X0.10642*%
%ADD36R,0.09855X0.09855*%
%ADD37R,0.12611X0.12611*%
%ADD38R,0.09800X0.09855*%
%ADD39R,0.11430X0.09461*%
%ADD40R,0.13792X0.06706*%
%ADD41R,0.06300X0.05800*%
%ADD42R,0.05118X0.04724*%
%ADD43R,0.03162X0.06312*%
%ADD44R,0.04724X0.05118*%
%ADD45R,0.04540X0.04343*%
%ADD46R,0.03740X0.03543*%
%ADD47R,0.06706X0.10642*%
G04:AMPARAMS|DCode=48|XSize=85.17mil|YSize=30.44mil|CornerRadius=9.5mil|HoleSize=0mil|Usage=FLASHONLY|Rotation=0.000|XOffset=0mil|YOffset=0mil|HoleType=Round|Shape=RoundedRectangle|*
%AMROUNDEDRECTD48*
21,1,0.08517,0.01145,0,0,0.0*
21,1,0.06617,0.03044,0,0,0.0*
1,1,0.01900,0.03309,-0.00572*
1,1,0.01900,-0.03309,-0.00572*
1,1,0.01900,-0.03309,0.00572*
1,1,0.01900,0.03309,0.00572*
%
%ADD48ROUNDEDRECTD48*%
%ADD49C,0.18517*%
%ADD50O,0.08300X0.09800*%
%ADD51R,0.08300X0.09800*%
%ADD52C,0.10839*%
G36*
X464055Y382284D02*
Y356890D01*
X554252D01*
Y382323D01*
X464055Y382284D01*
D02*
G37*
D21*
X402992Y352677D02*
D03*
X402992Y364488D02*
D03*
X377402D02*
D03*
Y352677D02*
D03*
D22*
X293110Y214078D02*
D03*
X293110Y206929D02*
D03*
X489292Y341272D02*
D03*
X489291Y348422D02*
D03*
X524921Y322350D02*
D03*
X524921Y315200D02*
D03*
X499898Y291419D02*
D03*
X499897Y298568D02*
D03*
X337953Y257414D02*
D03*
X337953Y264563D02*
D03*
X506236Y298647D02*
D03*
X506237Y291498D02*
D03*
X506275Y311206D02*
D03*
X506276Y304057D02*
D03*
X517480Y348216D02*
D03*
X517480Y341067D02*
D03*
X511535Y348491D02*
D03*
X511535Y341342D02*
D03*
X392441Y258123D02*
D03*
X392441Y265272D02*
D03*
X337953Y245524D02*
D03*
X337953Y252674D02*
D03*
X315039Y246335D02*
D03*
X315040Y239186D02*
D03*
X318386Y365249D02*
D03*
X318386Y372398D02*
D03*
D23*
X478146Y290769D02*
D03*
X483146Y290769D02*
D03*
X488145D02*
D03*
X493146Y290769D02*
D03*
X493146Y312123D02*
D03*
X488145D02*
D03*
X483146D02*
D03*
X478146D02*
D03*
D24*
X485645Y301446D02*
D03*
D25*
X492956Y282313D02*
D03*
X485807Y282312D02*
D03*
X525460Y308189D02*
D03*
X518311Y308189D02*
D03*
X323241Y246496D02*
D03*
X330390Y246496D02*
D03*
X369996Y239016D02*
D03*
X362847Y239015D02*
D03*
X307808Y324842D02*
D03*
X314957Y324843D02*
D03*
X307808Y330669D02*
D03*
X314957Y330669D02*
D03*
X534540Y308070D02*
D03*
X541689Y308071D02*
D03*
X539855Y229724D02*
D03*
X547004Y229724D02*
D03*
X407232Y259410D02*
D03*
X400082Y259409D02*
D03*
X386877Y246300D02*
D03*
X379728Y246299D02*
D03*
X299209Y259409D02*
D03*
X292060Y259409D02*
D03*
X313425Y279370D02*
D03*
X306276Y279370D02*
D03*
D26*
X419735Y306590D02*
D03*
Y332575D02*
D03*
X395315Y332638D02*
D03*
Y306653D02*
D03*
X369921Y306653D02*
D03*
Y332638D02*
D03*
D27*
X441996Y345236D02*
D03*
X450996D02*
D03*
X479464Y282312D02*
D03*
X470464D02*
D03*
X513954Y219394D02*
D03*
X522954D02*
D03*
X297783Y300433D02*
D03*
X306784D02*
D03*
X442063Y353622D02*
D03*
X451063D02*
D03*
X448728Y251535D02*
D03*
X457728Y251535D02*
D03*
X448807Y243386D02*
D03*
X457807Y243386D02*
D03*
X431665Y234528D02*
D03*
X422665D02*
D03*
X399264Y277305D02*
D03*
X390264D02*
D03*
X368886Y282559D02*
D03*
X377886D02*
D03*
X362075Y246181D02*
D03*
X371075D02*
D03*
X273386Y322874D02*
D03*
X264386Y322874D02*
D03*
X265449Y368779D02*
D03*
X274449Y368779D02*
D03*
X458949Y277087D02*
D03*
X449949D02*
D03*
D28*
X499858Y311013D02*
D03*
X499858Y303926D02*
D03*
X471315Y305934D02*
D03*
Y313021D02*
D03*
X244803Y346299D02*
D03*
Y353386D02*
D03*
D29*
X525787Y301339D02*
D03*
X522047Y291496D02*
D03*
X449173Y258937D02*
D03*
X452913Y268779D02*
D03*
D30*
X518307Y301339D02*
D03*
X456653Y258937D02*
D03*
D31*
X545449Y291693D02*
D03*
D32*
X533449D02*
D03*
D33*
X316260Y310039D02*
D03*
Y317520D02*
D03*
X307992Y313779D02*
D03*
D34*
X216772Y377441D02*
D03*
X216772Y369567D02*
D03*
X216772Y361693D02*
D03*
Y353819D02*
D03*
X216772Y345945D02*
D03*
Y338071D02*
D03*
X216772Y330197D02*
D03*
X216772Y322323D02*
D03*
X216772Y314292D02*
D03*
X216772Y306418D02*
D03*
X216772Y298701D02*
D03*
Y290827D02*
D03*
X216772Y282796D02*
D03*
X216772Y274922D02*
D03*
X216772Y267205D02*
D03*
Y259331D02*
D03*
Y251300D02*
D03*
X216772Y243426D02*
D03*
Y235551D02*
D03*
X216772Y227677D02*
D03*
X234764D02*
D03*
X234764Y235551D02*
D03*
Y243426D02*
D03*
X234764Y251300D02*
D03*
Y259331D02*
D03*
Y267205D02*
D03*
X234764Y274922D02*
D03*
X234764Y282796D02*
D03*
X234764Y290827D02*
D03*
Y298701D02*
D03*
X234764Y306418D02*
D03*
X234764Y314292D02*
D03*
X234764Y322323D02*
D03*
X234764Y330197D02*
D03*
X234764Y338071D02*
D03*
Y345945D02*
D03*
X234764Y353819D02*
D03*
Y361693D02*
D03*
X234764Y369567D02*
D03*
X234764Y377441D02*
D03*
D35*
X308969Y199717D02*
D03*
X316843Y199717D02*
D03*
X324717D02*
D03*
X332591D02*
D03*
X340465D02*
D03*
X348339Y199717D02*
D03*
X356213D02*
D03*
X364087Y199717D02*
D03*
X372118D02*
D03*
X379992D02*
D03*
X387709D02*
D03*
X395583D02*
D03*
X403614D02*
D03*
X411488Y199717D02*
D03*
X419205D02*
D03*
X427079Y199717D02*
D03*
X435110D02*
D03*
X442984D02*
D03*
X450859D02*
D03*
X458733Y199717D02*
D03*
Y217709D02*
D03*
X450859Y217709D02*
D03*
X442984D02*
D03*
X435110D02*
D03*
X427079D02*
D03*
X419205Y217709D02*
D03*
X411488D02*
D03*
X403614Y217709D02*
D03*
X395583D02*
D03*
X387709D02*
D03*
X379992D02*
D03*
X372118D02*
D03*
X364087D02*
D03*
X356213Y217709D02*
D03*
X348339D02*
D03*
X340465Y217709D02*
D03*
X332591D02*
D03*
X324717D02*
D03*
X316843D02*
D03*
X308969Y217709D02*
D03*
D36*
X515158Y249803D02*
D03*
Y277756D02*
D03*
X543110D02*
D03*
Y249803D02*
D03*
D37*
X500015Y266603D02*
D03*
X474031D02*
D03*
X250787Y204724D02*
D03*
X276772D02*
D03*
D38*
X440987Y302732D02*
D03*
X456987D02*
D03*
X477236Y249213D02*
D03*
X493236D02*
D03*
X511399Y229827D02*
D03*
X527399D02*
D03*
X453905Y364488D02*
D03*
X437906D02*
D03*
X547409Y344803D02*
D03*
X531410D02*
D03*
D39*
X439184Y324583D02*
D03*
X459263Y324583D02*
D03*
D40*
X477312Y238708D02*
D03*
X477312Y220851D02*
D03*
X494753Y220631D02*
D03*
X494753Y238488D02*
D03*
X422520Y349134D02*
D03*
X422520Y366991D02*
D03*
D41*
X364094Y354122D02*
D03*
X364094Y363122D02*
D03*
X326063Y317335D02*
D03*
Y308335D02*
D03*
X549803Y321772D02*
D03*
Y312772D02*
D03*
X556890Y220630D02*
D03*
Y229630D02*
D03*
X407480Y268583D02*
D03*
X407480Y277583D02*
D03*
X307913Y238020D02*
D03*
Y247020D02*
D03*
X345748Y274476D02*
D03*
Y283476D02*
D03*
X337677Y274555D02*
D03*
Y283555D02*
D03*
X355197Y363083D02*
D03*
Y354083D02*
D03*
D42*
X345630Y238701D02*
D03*
X352323D02*
D03*
X330039Y238701D02*
D03*
X323346D02*
D03*
X320945Y279370D02*
D03*
X327638D02*
D03*
D43*
X292520Y309291D02*
D03*
X296260Y309291D02*
D03*
X300000D02*
D03*
X300000Y319134D02*
D03*
X296260Y319134D02*
D03*
X292520Y319134D02*
D03*
D44*
X350236Y315669D02*
D03*
Y308976D02*
D03*
X345709Y254961D02*
D03*
Y248268D02*
D03*
X286024Y252638D02*
D03*
Y245945D02*
D03*
D45*
X332992Y316378D02*
D03*
X342835Y312638D02*
D03*
X505709Y341260D02*
D03*
X495866Y345000D02*
D03*
D46*
X332992Y308898D02*
D03*
X505709Y348740D02*
D03*
D47*
X421535Y272284D02*
D03*
X433347Y272284D02*
D03*
Y246693D02*
D03*
X421535D02*
D03*
D48*
X383189Y269508D02*
D03*
Y264508D02*
D03*
X383189Y259508D02*
D03*
Y254508D02*
D03*
X363740Y254508D02*
D03*
Y259508D02*
D03*
Y264508D02*
D03*
X363740Y269508D02*
D03*
X327520Y269508D02*
D03*
X327520Y264508D02*
D03*
Y259508D02*
D03*
X327520Y254508D02*
D03*
X308071D02*
D03*
Y259508D02*
D03*
Y264508D02*
D03*
Y269508D02*
D03*
D49*
X218819Y403063D02*
D03*
X548740Y403142D02*
D03*
X548779Y202040D02*
D03*
X218858Y202000D02*
D03*
D50*
X477312Y208803D02*
D03*
X513092Y208803D02*
D03*
X308465Y353307D02*
D03*
X318465D02*
D03*
X274528Y357402D02*
D03*
X264528D02*
D03*
X274327Y311496D02*
D03*
X264327Y311496D02*
D03*
D51*
X487312Y208803D02*
D03*
X523092Y208803D02*
D03*
X328965Y353307D02*
D03*
X254028Y357402D02*
D03*
X253827Y311496D02*
D03*
D52*
X253110Y273150D02*
D03*
Y233150D02*
D03*
X293110D02*
D03*
Y273150D02*
D03*
X273110Y253150D02*
D03*
M02*
